<svg width="88" height="88" viewBox="0 0 88 88" fill="none" xmlns="http://www.w3.org/2000/svg">
    <g clip-path="url(#clip0_3055_5565)">
        <mask id="mask0_3055_5565" style="mask-type:luminance" maskUnits="userSpaceOnUse" x="0" y="0" width="88" height="88">
            <path d="M88 0H0V88H88V0Z" fill="white"/>
        </mask>
        <g mask="url(#mask0_3055_5565)">
            <path d="M76.0118 44.0147C76.0118 44.569 75.9978 45.1214 75.9697 45.669C75.9327 46.344 75.6383 46.9792 75.147 47.4436C74.6558 47.9081 74.0051 48.1664 73.3291 48.1654H60.5104C61.2653 45.4504 61.2653 42.5809 60.5104 39.8659H65.3583C65.6035 39.8648 65.8452 39.8075 66.0648 39.6984C66.2844 39.5893 66.4761 39.4313 66.6251 39.2365C66.774 39.0418 66.8763 38.8154 66.9241 38.5749C66.9719 38.3344 66.9639 38.0861 66.9008 37.8492C65.7516 33.575 63.4294 29.7075 60.1968 26.6843C56.9642 23.661 52.9502 21.6026 48.6086 20.7418C44.2671 19.881 39.7714 20.2522 35.6298 21.8133C31.4882 23.3745 27.8661 26.0633 25.1731 29.5757C22.48 33.0882 20.8235 37.2841 20.3909 41.6889C19.9582 46.0937 20.7667 50.5317 22.7249 54.501C24.6831 58.4703 27.7129 61.8125 31.4715 64.1496C35.2302 66.4867 39.5679 67.7255 43.9939 67.7258H56.7007C57.4082 67.7255 58.0869 68.0062 58.5875 68.5062C59.0881 69.0062 59.3696 69.6846 59.37 70.3921V73.3584C59.3692 74.0654 59.088 74.7432 58.588 75.2431C58.088 75.743 57.4102 76.0241 56.7032 76.0247H43.783C39.5778 76.0219 35.4149 75.1857 31.5348 73.5643C27.6548 71.9429 24.1346 69.5685 21.1777 66.5783C18.2209 63.5882 15.8861 60.0416 14.3082 56.1437C12.7303 52.2457 11.9408 48.0736 11.9851 43.8686C11.9841 43.8542 11.9841 43.8397 11.9851 43.8253C12.0261 35.7057 15.1508 27.905 20.7266 22.0025C26.3023 16.0999 33.9126 12.5365 42.0167 12.0336C50.1208 11.5306 58.1132 14.1258 64.3759 19.2937C70.6387 24.4616 74.7039 31.8161 75.7484 39.8683C75.9264 41.2437 76.016 42.6291 76.0167 44.0159L76.0118 44.0147Z" fill="url(#paint0_linear_3055_5565)"/>
            <path d="M59.4122 44.0153C59.4161 47.9587 57.9071 51.7533 55.1962 54.6171C52.4853 57.4809 48.7791 59.1957 44.8415 59.408C42.5865 59.2905 40.385 58.678 38.3934 57.6139C36.4018 56.5498 34.6689 55.0603 33.3178 53.2511C33.169 53.0546 33.078 52.8205 33.0551 52.5751C33.0321 52.3297 33.0781 52.0828 33.1878 51.8621C33.2976 51.6414 33.4667 51.4557 33.6762 51.3259C33.8857 51.1962 34.1273 51.1274 34.3738 51.1275H44.4754L46.8459 48.757V39.2731L44.4748 36.9038H34.3359C34.0939 36.9026 33.857 36.8342 33.6516 36.7061C33.4462 36.5781 33.2803 36.3956 33.1726 36.1789C33.0649 35.9621 33.0195 35.7198 33.0414 35.4787C33.0634 35.2377 33.1519 35.0075 33.297 34.8138C34.6486 32.9967 36.3846 31.5003 38.3811 30.4313C40.3776 29.3622 42.5854 28.747 44.847 28.6294C48.7838 28.8417 52.4893 30.5558 55.2 33.4185C57.9107 36.2813 59.4203 40.0747 59.4177 44.0172L59.4122 44.0153Z" fill="url(#paint1_linear_3055_5565)"/>
            <path d="M59.4122 44.0159C59.416 47.9597 57.9066 51.7548 55.1951 54.6186C52.4835 57.4825 48.7766 59.1969 44.8384 59.4085C44.5604 59.4232 44.2762 59.4311 43.9939 59.4311C41.6009 59.4332 39.2403 58.8775 37.0996 57.808C34.9589 56.7385 33.097 55.1847 31.6617 53.2699C31.5111 53.0732 31.4185 52.8383 31.3942 52.5917C31.3699 52.3451 31.415 52.0967 31.5243 51.8744C31.6336 51.652 31.8029 51.4647 32.013 51.3333C32.223 51.202 32.4656 51.1319 32.7134 51.131H41.132C41.6643 51.1315 42.1914 51.027 42.6832 50.8236C43.175 50.6202 43.6219 50.3218 43.9983 49.9454C44.3747 49.5691 44.6732 49.1223 44.8767 48.6305C45.0802 48.1387 45.1847 47.6116 45.1843 47.0794V40.9505C45.1838 39.8769 44.757 38.8475 43.9977 38.0885C43.2384 37.3295 42.2087 36.9031 41.1351 36.9031H32.6737C32.4328 36.9037 32.1965 36.8374 31.9911 36.7118C31.7856 36.5862 31.619 36.406 31.5097 36.1914C31.4004 35.9768 31.3528 35.7361 31.3721 35.496C31.3913 35.2559 31.4768 35.0259 31.6189 34.8315C33.051 32.8976 34.9165 31.3263 37.0658 30.2438C39.215 29.1613 41.588 28.5977 43.9945 28.5981C44.2768 28.5981 44.5585 28.6049 44.8372 28.6208C48.7752 28.8323 52.4819 30.5466 55.1934 33.4102C57.9049 36.2738 59.4145 40.0685 59.411 44.0122L59.4122 44.0159Z" fill="url(#paint2_linear_3055_5565)"/>
            <path d="M68.7133 67.5797H72.9911C73.7931 67.5797 74.5622 67.8983 75.1292 68.4654C75.6963 69.0324 76.0149 69.8015 76.0149 70.6035V74.9063C76.015 75.0537 75.9861 75.1997 75.9298 75.3359C75.8735 75.4721 75.7908 75.5958 75.6866 75.7001C75.5824 75.8043 75.4586 75.8869 75.3224 75.9432C75.1862 75.9996 75.0403 76.0285 74.8929 76.0283H66.8091C66.5119 76.0283 66.2268 75.9102 66.0166 75.7001C65.8064 75.4899 65.6883 75.2048 65.6883 74.9075V70.6035C65.6883 70.2063 65.7666 69.813 65.9186 69.4461C66.0706 69.0791 66.2935 68.7457 66.5744 68.4649C66.8553 68.1841 67.1888 67.9614 67.5558 67.8095C67.9228 67.6576 68.3161 67.5796 68.7133 67.5797Z" fill="url(#paint3_linear_3055_5565)"/>
            <path d="M67.4312 61.9416C67.4312 63.83 68.962 65.3608 70.8504 65.3608C72.7387 65.3608 74.2695 63.83 74.2695 61.9416C74.2695 60.0533 72.7387 58.5225 70.8504 58.5225C68.962 58.5225 67.4312 60.0533 67.4312 61.9416Z" fill="url(#paint4_linear_3055_5565)"/>
            <path fill-rule="evenodd" clip-rule="evenodd" d="M70.8999 57.6333H70.8015C70.5661 57.6332 70.3329 57.6795 70.1154 57.7696C69.8979 57.8596 69.7002 57.9916 69.5337 58.1581C69.4182 58.2735 69.3193 58.404 69.2394 58.5457C68.717 58.5763 68.2222 58.7973 67.8502 59.1694C67.4485 59.571 67.2228 60.1159 67.2228 60.6839H74.495C74.495 60.1159 74.2694 59.571 73.8677 59.1694C73.4915 58.7931 72.9897 58.5713 72.4608 58.5447C72.3811 58.4035 72.2824 58.2734 72.1673 58.1583C72.0009 57.9918 71.8033 57.8598 71.5858 57.7697C71.3683 57.6797 71.1353 57.6333 70.8999 57.6333Z" fill="url(#paint5_linear_3055_5565)"/>
            <path d="M35.926 42.3243C35.5916 42.3243 35.2646 42.4235 34.9866 42.6093C34.7085 42.7951 34.4917 43.0592 34.3638 43.3682C34.2358 43.6772 34.2023 44.0172 34.2675 44.3452C34.3328 44.6732 34.4938 44.9745 34.7303 45.211C34.9668 45.4474 35.2681 45.6085 35.5961 45.6737C35.9241 45.739 36.2641 45.7055 36.5731 45.5775C36.8821 45.4495 37.1462 45.2328 37.332 44.9547C37.5178 44.6767 37.6169 44.3497 37.6169 44.0153C37.6169 43.5668 37.4388 43.1367 37.1217 42.8196C36.8046 42.5025 36.3745 42.3243 35.926 42.3243ZM35.926 44.8598C35.7588 44.86 35.5953 44.8105 35.4562 44.7177C35.3171 44.6248 35.2087 44.4928 35.1447 44.3384C35.0806 44.1839 35.0638 44.0139 35.0964 43.8499C35.129 43.6859 35.2095 43.5353 35.3278 43.4171C35.446 43.2988 35.5966 43.2183 35.7606 43.1857C35.9246 43.1531 36.0946 43.1699 36.2491 43.234C36.4036 43.298 36.5355 43.4064 36.6284 43.5455C36.7212 43.6846 36.7707 43.8481 36.7705 44.0153C36.7704 44.2392 36.6814 44.4539 36.523 44.6123C36.3647 44.7706 36.1499 44.8597 35.926 44.8598Z" fill="url(#paint6_linear_3055_5565)"/>
            <path d="M39.8542 44.819L39.6666 44.7108C39.7507 44.2512 39.7507 43.7802 39.6666 43.3205L39.8542 43.2136C40.1281 43.0368 40.3236 42.7615 40.4003 42.4447C40.477 42.1278 40.429 41.7936 40.2663 41.5111C40.1035 41.2286 39.8385 41.0195 39.5259 40.9269C39.2133 40.8343 38.8771 40.8653 38.5868 41.0136L38.3992 41.1218C38.0443 40.8182 37.6363 40.5828 37.1959 40.4275V40.21C37.1725 39.8897 37.0288 39.5901 36.7937 39.3715C36.5585 39.1528 36.2493 39.0313 35.9281 39.0312C35.607 39.0313 35.2978 39.1528 35.0626 39.3715C34.8274 39.5901 34.6837 39.8897 34.6604 40.21V40.43C34.2198 40.5853 33.8119 40.8209 33.4571 41.1248L33.2738 41.0166C32.9829 40.8613 32.643 40.825 32.3259 40.9156C32.0088 41.0061 31.7393 41.2164 31.5743 41.5019C31.4093 41.7875 31.3617 42.126 31.4417 42.4459C31.5216 42.7659 31.7228 43.0422 32.0027 43.2167L32.1903 43.3236C32.1062 43.7832 32.1062 44.2543 32.1903 44.7139L32.0027 44.822C31.8523 44.9024 31.7196 45.0121 31.6125 45.1448C31.5054 45.2774 31.4261 45.4303 31.3793 45.5942C31.3325 45.7582 31.3191 45.9298 31.34 46.099C31.3609 46.2682 31.4157 46.4315 31.5009 46.5791C31.5862 46.7267 31.7004 46.8557 31.8365 46.9583C31.9727 47.0609 32.1281 47.1351 32.2935 47.1764C32.4589 47.2178 32.6309 47.2254 32.7993 47.1989C32.9677 47.1723 33.1291 47.1122 33.2738 47.022L33.4614 46.9139C33.8168 47.2173 34.2251 47.4527 34.6659 47.6081V47.8244C34.6532 47.9987 34.6765 48.1737 34.7345 48.3385C34.7925 48.5033 34.8838 48.6544 35.0027 48.7823C35.1217 48.9103 35.2658 49.0123 35.4259 49.0821C35.5861 49.1519 35.7589 49.1879 35.9336 49.1879C36.1083 49.1879 36.2812 49.1519 36.4413 49.0821C36.6015 49.0123 36.7456 48.9103 36.8645 48.7823C36.9835 48.6544 37.0748 48.5033 37.1328 48.3385C37.1907 48.1737 37.2141 47.9987 37.2014 47.8244V47.6081C37.6417 47.4517 38.0496 47.2158 38.4047 46.912L38.5941 47.0214C38.885 47.1768 39.2249 47.2131 39.542 47.1225C39.8591 47.032 40.1286 46.8217 40.2936 46.5362C40.4586 46.2506 40.5061 45.9121 40.4262 45.5921C40.3463 45.2722 40.1451 44.9958 39.8652 44.8214L39.8542 44.819ZM38.7787 43.2234C38.9213 43.7419 38.9213 44.2894 38.7787 44.808C38.7537 44.8982 38.7595 44.9941 38.7951 45.0807C38.8307 45.1672 38.8942 45.2394 38.9754 45.2859L39.4344 45.5511C39.5293 45.6084 39.5979 45.7007 39.6255 45.8081C39.6532 45.9154 39.6376 46.0294 39.5821 46.1254C39.5267 46.2214 39.4358 46.2918 39.329 46.3216C39.2222 46.3513 39.108 46.338 39.0109 46.2844L38.5519 46.018C38.4706 45.9713 38.3761 45.9529 38.2832 45.9658C38.1903 45.9786 38.1042 46.0219 38.0386 46.0889C37.663 46.4736 37.1895 46.7483 36.6691 46.8833C36.5783 46.9069 36.498 46.96 36.4407 47.0342C36.3834 47.1084 36.3524 47.1996 36.3525 47.2934V47.822C36.3564 47.8798 36.3483 47.9378 36.3287 47.9924C36.3092 48.047 36.2787 48.097 36.2391 48.1393C36.1995 48.1816 36.1516 48.2153 36.0984 48.2384C36.0453 48.2614 35.9879 48.2733 35.93 48.2733C35.872 48.2733 35.8147 48.2614 35.7615 48.2384C35.7083 48.2153 35.6604 48.1816 35.6208 48.1393C35.5812 48.097 35.5507 48.047 35.5312 47.9924C35.5117 47.9378 35.5036 47.8798 35.5074 47.822V47.2885C35.5075 47.1947 35.4765 47.1035 35.4192 47.0293C35.3619 46.9551 35.2816 46.902 35.1908 46.8784C34.6705 46.7434 34.1969 46.4687 33.8213 46.084C33.7555 46.0172 33.6695 45.9741 33.5766 45.9615C33.4837 45.9489 33.3892 45.9675 33.308 46.0143L32.849 46.2795C32.7523 46.3363 32.637 46.3522 32.5284 46.3239C32.4199 46.2956 32.3271 46.2254 32.2703 46.1286C32.2136 46.0318 32.1976 45.9165 32.2259 45.808C32.2542 45.6994 32.3245 45.6066 32.4213 45.5499L32.8802 45.2847C32.9614 45.2379 33.0247 45.1656 33.0603 45.079C33.0959 44.9924 33.1018 44.8964 33.077 44.8061C32.9343 44.2878 32.9343 43.7405 33.077 43.2222C33.1016 43.1321 33.0956 43.0365 33.06 42.9502C33.0244 42.864 32.9611 42.792 32.8802 42.7455L32.4219 42.4803C32.3246 42.4242 32.2537 42.3318 32.2245 42.2234C32.1954 42.1149 32.2106 41.9994 32.2667 41.9022C32.3227 41.8049 32.4151 41.7339 32.5236 41.7048C32.632 41.6757 32.7475 41.6908 32.8448 41.7469L33.3037 42.0134C33.3849 42.0603 33.4793 42.079 33.5722 42.0665C33.6651 42.054 33.7512 42.011 33.817 41.9443C34.1924 41.5593 34.666 41.2845 35.1865 41.1499C35.2778 41.1264 35.3587 41.0732 35.4163 40.9986C35.4738 40.924 35.5048 40.8322 35.5043 40.738V40.2094C35.5101 40.1013 35.5572 39.9996 35.6357 39.9251C35.7143 39.8507 35.8184 39.8092 35.9266 39.8092C36.0348 39.8092 36.1389 39.8507 36.2175 39.9251C36.296 39.9996 36.3431 40.1013 36.3489 40.2094V40.738C36.3488 40.8319 36.38 40.9232 36.4375 40.9975C36.495 41.0717 36.5757 41.1247 36.6667 41.148C37.187 41.2831 37.6606 41.5578 38.0362 41.9425C38.1019 42.0094 38.188 42.0525 38.2809 42.0651C38.3738 42.0777 38.4683 42.0591 38.5495 42.0122L39.0084 41.7469C39.0563 41.7188 39.1093 41.7005 39.1643 41.6928C39.2193 41.6852 39.2753 41.6885 39.3291 41.7025C39.3828 41.7166 39.4333 41.741 39.4775 41.7745C39.5218 41.8081 39.5591 41.85 39.5872 41.8979C39.6152 41.9458 39.6336 41.9988 39.6412 42.0538C39.6489 42.1088 39.6456 42.1648 39.6315 42.2185C39.6175 42.2722 39.5931 42.3227 39.5595 42.367C39.526 42.4113 39.4841 42.4485 39.4362 42.4766L38.9779 42.7418C38.897 42.7882 38.8338 42.8601 38.7982 42.9462C38.7626 43.0324 38.7566 43.1279 38.7811 43.2179L38.7787 43.2234Z" fill="url(#paint7_linear_3055_5565)"/>
        </g>
    </g>
    <defs>
        <linearGradient id="paint0_linear_3055_5565" x1="10.3185" y1="10.8191" x2="76.0367" y2="77.286" gradientUnits="userSpaceOnUse">
            <stop stop-color="#AEAEAE"/>
            <stop offset="1" stop-color="#505050"/>
        </linearGradient>
        <linearGradient id="paint1_linear_3055_5565" x1="32.3501" y1="28.0754" x2="63.6131" y2="55.1856" gradientUnits="userSpaceOnUse">
            <stop stop-color="#AEAEAE"/>
            <stop offset="1" stop-color="#505050"/>
        </linearGradient>
        <linearGradient id="paint2_linear_3055_5565" x1="30.6387" y1="28.0432" x2="62.1664" y2="57.0547" gradientUnits="userSpaceOnUse">
            <stop stop-color="#AEAEAE"/>
            <stop offset="1" stop-color="#505050"/>
        </linearGradient>
        <linearGradient id="paint3_linear_3055_5565" x1="65.4198" y1="67.4276" x2="73.8969" y2="77.9101" gradientUnits="userSpaceOnUse">
            <stop stop-color="#AEAEAE"/>
            <stop offset="1" stop-color="#505050"/>
        </linearGradient>
        <linearGradient id="paint4_linear_3055_5565" x1="67.2534" y1="58.3994" x2="74.2695" y2="65.4976" gradientUnits="userSpaceOnUse">
            <stop stop-color="#AEAEAE"/>
            <stop offset="1" stop-color="#505050"/>
        </linearGradient>
        <linearGradient id="paint5_linear_3055_5565" x1="68.9127" y1="57.5947" x2="70.8125" y2="60.8994" gradientUnits="userSpaceOnUse">
            <stop stop-color="#7E7E7E"/>
            <stop offset="1" stop-color="#595959"/>
        </linearGradient>
        <linearGradient id="paint6_linear_3055_5565" x1="34.1471" y1="42.2635" x2="37.6169" y2="45.7739" gradientUnits="userSpaceOnUse">
            <stop stop-color="#AEAEAE"/>
            <stop offset="1" stop-color="#505050"/>
        </linearGradient>
        <linearGradient id="paint7_linear_3055_5565" x1="31.093" y1="38.8484" x2="41.468" y2="48.2876" gradientUnits="userSpaceOnUse">
            <stop stop-color="#AEAEAE"/>
            <stop offset="1" stop-color="#505050"/>
        </linearGradient>
        <clipPath id="clip0_3055_5565">
            <rect width="88" height="88" fill="white"/>
        </clipPath>
    </defs>
</svg>
