<?xml version="1.0" encoding="UTF-8"?>
<svg version="1.1" xmlns="http://www.w3.org/2000/svg" width="1024" height="1024">
<path d="M0 0 C5.14803296 0.00462339 10.29605382 -0.00250694 15.44408417 -0.00795984 C25.4713976 -0.01675263 35.49868074 -0.01497771 45.52599525 -0.00913456 C53.69123962 -0.00457759 61.85647561 -0.00402237 70.02172089 -0.00618219 C71.19345541 -0.00648866 72.36518993 -0.00679513 73.57243156 -0.00711088 C75.95439148 -0.00775047 78.3363514 -0.0083989 80.71831131 -0.00905606 C102.94094349 -0.01472972 125.16355905 -0.00824838 147.38618851 0.00254467 C166.36464251 0.01147746 185.34307202 0.00992457 204.32152557 0.00070715 C226.47640636 -0.01004829 248.63127266 -0.01418067 270.7861557 -0.00806832 C273.15829722 -0.00743137 275.53043874 -0.00680263 277.90258026 -0.00618219 C279.65230416 -0.00571937 279.65230416 -0.00571937 281.43737602 -0.00524719 C289.57226541 -0.00353599 297.70714545 -0.00640091 305.84203339 -0.0111413 C315.78512404 -0.01680922 325.72818322 -0.01511174 335.67127037 -0.00457981 C340.7232244 0.00059877 345.77512638 0.0028713 350.82707977 -0.00387812 C370.07533519 -0.02736365 389.27255209 0.14784211 408.49730682 1.16824865 C409.25605606 1.20815435 410.0148053 1.24806004 410.79654694 1.289175 C492.15305459 5.68450461 565.61990437 28.12822533 621.51683807 90.09348059 C623.75319173 92.75990225 625.8728052 95.47805291 627.96215057 98.26144934 C628.45279999 98.9133927 628.9434494 99.56533606 629.44896698 100.23703527 C636.92489329 110.22438805 643.87395065 120.37057371 649.96215057 131.26144934 C650.36530487 131.97349524 650.76845917 132.68554113 651.18383026 133.41916418 C675.79706529 177.20650659 682.47040777 228.25698933 685.05925751 277.74191809 C685.10166887 278.54327688 685.14408022 279.34463568 685.18777677 280.17027807 C686.18811891 299.54397054 686.24951159 318.90435197 686.22359991 338.29929876 C686.21897652 343.44733173 686.22610685 348.59535259 686.23155975 353.74338293 C686.24035254 363.77069637 686.23857762 373.7979795 686.23273447 383.82529402 C686.2281775 391.99053838 686.22762228 400.15577438 686.2297821 408.32101965 C686.2302418 410.07862144 686.2302418 410.07862144 686.23071079 411.87173033 C686.23135038 414.25369025 686.23199881 416.63565016 686.23265597 419.01761007 C686.23832963 441.24024226 686.23184829 463.46285782 686.22105524 485.68548727 C686.21212245 504.66394127 686.21367534 523.64237078 686.22289276 542.62082434 C686.2336482 564.77570513 686.23778058 586.93057143 686.23166823 609.08545446 C686.23103128 611.45759598 686.23040254 613.8297375 686.2297821 616.20187902 C686.22947355 617.36836163 686.229165 618.53484423 686.2288471 619.73667479 C686.2271359 627.87156418 686.23000082 636.00644421 686.23474121 644.14133215 C686.24040913 654.08442281 686.23871165 664.02748198 686.22817972 673.97056913 C686.22300114 679.02252317 686.22072861 684.07442515 686.22747803 689.12637854 C686.25096356 708.37463395 686.0757578 727.57185085 685.05535126 746.79660559 C684.99549271 747.93472944 684.99549271 747.93472944 684.93442491 749.0958457 C680.5390953 830.45235335 658.09537458 903.91920313 596.13011932 959.81613684 C593.46369766 962.05249049 590.745547 964.17210396 587.96215057 966.26144934 C587.31020721 966.75209875 586.65826385 967.24274817 585.98656464 967.74826574 C575.99921186 975.22419206 565.8530262 982.17324941 554.96215057 988.26144934 C554.25010468 988.66460363 553.53805878 989.06775793 552.80443573 989.48312902 C509.01709332 1014.09636405 457.96661058 1020.76970653 408.48168182 1023.35855627 C407.68032303 1023.40096763 406.87896423 1023.44337899 406.05332184 1023.48707554 C386.67962937 1024.48741767 367.31924794 1024.54881035 347.92430115 1024.52289867 C342.77626818 1024.51827528 337.62824732 1024.52540562 332.48021698 1024.53085852 C322.45290354 1024.5396513 312.42562041 1024.53787638 302.39830589 1024.53203323 C294.23306153 1024.52747626 286.06782553 1024.52692105 277.90258026 1024.52908087 C276.73084574 1024.52938733 275.55911121 1024.5296938 274.35186958 1024.53000955 C271.96990967 1024.53064914 269.58794975 1024.53129757 267.20598984 1024.53195474 C244.98335765 1024.53762839 222.7607421 1024.53114705 200.53811264 1024.520354 C181.55965864 1024.51142122 162.58122913 1024.5129741 143.60277557 1024.52219152 C121.44789478 1024.53294697 99.29302848 1024.53707935 77.13814545 1024.530967 C74.76600393 1024.53033004 72.39386241 1024.5297013 70.02172089 1024.52908087 C68.27199698 1024.52861804 68.27199698 1024.52861804 66.48692513 1024.52814586 C58.35203573 1024.52643466 50.2171557 1024.52929959 42.08226776 1024.53403997 C32.1391771 1024.5397079 22.19611793 1024.53801041 12.25303078 1024.52747849 C7.20107674 1024.52229991 2.14917477 1024.52002737 -2.90277863 1024.52677679 C-22.15103404 1024.55026232 -41.34825094 1024.37505657 -60.57300568 1023.35465002 C-61.71112953 1023.29479148 -61.71112953 1023.29479148 -62.87224579 1023.23372367 C-144.22875344 1018.83839406 -217.69560322 996.39467334 -273.59253693 934.42941809 C-275.82889058 931.76299642 -277.94850405 929.04484576 -280.03784943 926.26144934 C-280.52849884 925.60950598 -281.01914825 924.95756262 -281.52466583 924.2858634 C-289.00059214 914.29851063 -295.9496495 904.15232497 -302.03784943 893.26144934 C-302.64258087 892.19338049 -302.64258087 892.19338049 -303.25952911 891.10373449 C-327.87276414 847.31639208 -334.54610662 796.26590935 -337.13495636 746.78098059 C-337.1985734 745.57894239 -337.1985734 745.57894239 -337.26347563 744.3526206 C-338.26381776 724.97892813 -338.32521044 705.6185467 -338.29929876 686.22359991 C-338.29467537 681.07556695 -338.3018057 675.92754609 -338.30725861 670.77951574 C-338.31605139 660.75220231 -338.31427647 650.72491917 -338.30843332 640.69760466 C-338.30387635 632.5323603 -338.30332113 624.3671243 -338.30548096 616.20187902 C-338.30578742 615.0301445 -338.30609389 613.85840998 -338.30640964 612.65116835 C-338.30704923 610.26920843 -338.30769766 607.88724851 -338.30835482 605.5052886 C-338.31402848 583.28265642 -338.30754714 561.06004086 -338.29675409 538.8374114 C-338.28782131 519.85895741 -338.28937419 500.88052789 -338.29859161 481.90207434 C-338.30934706 459.74719355 -338.31347944 437.59232725 -338.30736709 415.43744421 C-338.30673013 413.06530269 -338.30610139 410.69316117 -338.30548096 408.32101965 C-338.30517241 407.15453705 -338.30486385 405.98805445 -338.30454595 404.78622389 C-338.30283475 396.6513345 -338.30569968 388.51645446 -338.31044006 380.38156652 C-338.31610799 370.43847587 -338.3144105 360.49541669 -338.30387858 350.55232954 C-338.2987 345.50037551 -338.29642746 340.44847353 -338.30317688 335.39652014 C-338.32666241 316.14826472 -338.15145666 296.95104782 -337.13105011 277.72629309 C-337.09114441 276.96754385 -337.05123872 276.20879461 -337.01012376 275.42705297 C-332.61479415 194.07054532 -310.17107343 120.60369554 -248.20581818 64.70676184 C-245.53939651 62.47040818 -242.82124585 60.35079472 -240.03784943 58.26144934 C-239.38590607 57.77079992 -238.73396271 57.28015051 -238.06226349 56.77463293 C-228.07491072 49.29870662 -217.92872505 42.34964926 -207.03784943 36.26144934 C-206.32580353 35.85829504 -205.61375763 35.45514074 -204.88013458 35.03976965 C-161.09279217 10.42653462 -110.04230943 3.75319214 -60.55738068 1.1643424 C-59.35534248 1.10072537 -59.35534248 1.10072537 -58.12902069 1.03582314 C-38.75532822 0.035481 -19.39494679 -0.02591168 0 0 Z " fill="#EAEAEA" transform="translate(338.03784942626953,-0.26144933700561523)"/>
<path d="M0 0 C0 0.66 0 1.32 0 2 C0.825 2.20625 1.65 2.4125 2.5 2.625 C6.89143822 4.35020787 10.54681549 6.77469061 14 10 C14 10.66 14 11.32 14 12 C14.66 12 15.32 12 16 12 C16 12.66 16 13.32 16 14 C16.66 14 17.32 14 18 14 C22 18.35294118 22 18.35294118 22 22 C22.66 22 23.32 22 24 22 C32.27857947 36.57029986 37.20060579 53.49564539 33.046875 70.2109375 C30.89385121 77.84874941 27.90606876 85.08542722 24 92 C23.34 92 22.68 92 22 92 C22 93.32 22 94.64 22 96 C20.125 98.25 20.125 98.25 18 100 C17.34 100 16.68 100 16 100 C16 100.66 16 101.32 16 102 C15.34 102 14.68 102 14 102 C14 102.66 14 103.32 14 104 C8.58823529 108 8.58823529 108 6 108 C6 108.66 6 109.32 6 110 C3.46080994 111.29673602 0.91885762 112.58747837 -1.625 113.875 C-2.33785156 114.23980469 -3.05070313 114.60460937 -3.78515625 114.98046875 C-18.38066969 122.34517737 -38.21279572 123.7314061 -54 119 C-58.70349961 117.42393238 -63.35874213 115.75217516 -68 114 C-68 113.34 -68 112.68 -68 112 C-68.57234375 111.88527344 -69.1446875 111.77054688 -69.734375 111.65234375 C-72.21471656 110.93817644 -74.06368697 109.92692128 -76.25 108.5625 C-77.30960938 107.91474609 -77.30960938 107.91474609 -78.390625 107.25390625 C-78.92171875 106.84011719 -79.4528125 106.42632813 -80 106 C-80 105.34 -80 104.68 -80 104 C-80.66 104 -81.32 104 -82 104 C-82 103.34 -82 102.68 -82 102 C-82.66 102 -83.32 102 -84 102 C-84 101.34 -84 100.68 -84 100 C-84.66 100 -85.32 100 -86 100 C-86 99.34 -86 98.68 -86 98 C-86.66 98 -87.32 98 -88 98 C-89.5078125 95.8828125 -89.5078125 95.8828125 -91.125 93.125 C-91.66382813 92.22007812 -92.20265625 91.31515625 -92.7578125 90.3828125 C-94 88 -94 88 -94 86 C-94.66 86 -95.32 86 -96 86 C-96 85.01 -96 84.02 -96 83 C-97.58298026 82.5196682 -99.16639978 82.04078388 -100.75 81.5625 C-101.63171875 81.29566406 -102.5134375 81.02882813 -103.421875 80.75390625 C-104.27265625 80.50511719 -105.1234375 80.25632812 -106 80 C-106.82008545 79.7376355 -106.82008545 79.7376355 -107.65673828 79.4699707 C-113.45571927 78.3069119 -119.64703448 78.69142132 -125.54833984 78.64990234 C-127.24118996 78.63354165 -128.933977 78.60652444 -130.62646484 78.56787109 C-141.90922675 78.31230331 -151.60559907 79.45713567 -162.37060547 82.91943359 C-166 84 -166 84 -170 84 C-170 84.66 -170 85.32 -170 86 C-173.96 86.99 -177.92 87.98 -182 89 C-182.33 91.31 -182.66 93.62 -183 96 C-160.89 96 -138.78 96 -116 96 C-116 103.59 -116 111.18 -116 119 C-147.68 119 -179.36 119 -212 119 C-212 111.08 -212 103.16 -212 95 C-213.85367188 95.01160156 -215.70734375 95.02320313 -217.6171875 95.03515625 C-220.03645733 95.04453326 -222.45572824 95.05363356 -224.875 95.0625 C-226.09832031 95.07087891 -227.32164062 95.07925781 -228.58203125 95.08789062 C-230.33193359 95.09272461 -230.33193359 95.09272461 -232.1171875 95.09765625 C-233.73536377 95.10551147 -233.73536377 95.10551147 -235.38623047 95.11352539 C-238 95 -238 95 -240 94 C-240 102.25 -240 110.5 -240 119 C-243.856875 119.103125 -247.71375 119.20625 -251.6875 119.3125 C-252.89494873 119.35802002 -254.10239746 119.40354004 -255.34643555 119.45043945 C-263.26716469 119.55325438 -263.26716469 119.55325438 -267.15625 116.6171875 C-267.7646875 115.75351562 -268.373125 114.88984375 -269 114 C-269.598125 113.278125 -270.19625 112.55625 -270.8125 111.8125 C-272 110 -272 110 -272 108 C-272.66 108 -273.32 108 -274 108 C-275.37310707 106.70766393 -276.71034824 105.37562854 -278 104 C-278 104.66 -278 105.32 -278 106 C-278.66 106 -279.32 106 -280 106 C-280.2475 106.804375 -280.495 107.60875 -280.75 108.4375 C-282 111 -282 111 -284.125 111.8125 C-284.74375 111.874375 -285.3625 111.93625 -286 112 C-286 112.66 -286 113.32 -286 114 C-287.24735567 114.6509259 -288.49801832 115.29551669 -289.75 115.9375 C-290.44609375 116.29714844 -291.1421875 116.65679688 -291.859375 117.02734375 C-298.08304332 119.85525143 -305.09805369 120.0364094 -311.5 117.75 C-314.20975727 115.85316991 -315.14477107 115.16434705 -316 112 C-316.14462093 109.30901771 -316.08999247 106.69977408 -316 104 C-315.34 104 -314.68 104 -314 104 C-313.938125 103.443125 -313.87625 102.88625 -313.8125 102.3125 C-312.21837196 97.77536636 -307.94578412 94.58516891 -304 92 C-303.34 92 -302.68 92 -302 92 C-302 91.34 -302 90.68 -302 90 C-298.7 89.01 -295.4 88.02 -292 87 C-293.78275345 83.07586387 -293.78275345 83.07586387 -296.125 80.375 C-298 78 -298 78 -298 76 C-298.66 76 -299.32 76 -300 76 C-300 75.34 -300 74.68 -300 74 C-300.66 74 -301.32 74 -302 74 C-302 73.34 -302 72.68 -302 72 C-302.66 72 -303.32 72 -304 72 C-305.78305524 69.36107824 -306.99059621 67.02821137 -308 64 C-310.64676089 64.47444755 -313.29233364 64.95431328 -315.9375 65.4375 C-316.69224609 65.57220703 -317.44699219 65.70691406 -318.22460938 65.84570312 C-321.91953174 66.24272034 -321.91953174 66.24272034 -325 68 C-325.12272849 69.59513893 -325.17781043 71.19554932 -325.20532227 72.79516602 C-325.22526749 73.81614883 -325.24521271 74.83713165 -325.26576233 75.88905334 C-325.28247482 76.9994548 -325.29918732 78.10985626 -325.31640625 79.25390625 C-325.3475779 80.94978127 -325.3475779 80.94978127 -325.37937927 82.67991638 C-325.44499797 86.30737985 -325.50381677 89.93491833 -325.5625 93.5625 C-325.60567351 96.01498186 -325.6492874 98.467456 -325.69335938 100.91992188 C-325.80152419 106.94653869 -325.90050608 112.97320873 -326 119 C-335.24 119 -344.48 119 -354 119 C-354 105.8 -354 92.6 -354 79 C-360.40411512 82.2415211 -360.40411512 82.2415211 -366.80371094 85.49194336 C-367.60583008 85.89550049 -368.40794922 86.29905762 -369.234375 86.71484375 C-370.05131836 87.12855225 -370.86826172 87.54226074 -371.70996094 87.96850586 C-373.81030766 88.91455755 -375.75160773 89.52819881 -378 90 C-378 90.66 -378 91.32 -378 92 C-379.32 92 -380.64 92 -382 92 C-382 92.66 -382 93.32 -382 94 C-387.75 97 -387.75 97 -390 97 C-390.37125 97.86625 -390.37125 97.86625 -390.75 98.75 C-392.60736894 102.09326408 -394.55757759 104.51919253 -398.25 105.75 C-398.8275 105.8325 -399.405 105.915 -400 106 C-400 106.66 -400 107.32 -400 108 C-414.49054517 117.32828845 -427.18645143 120.31231354 -444.375 120.4375 C-446.15801514 120.45296875 -446.15801514 120.45296875 -447.97705078 120.46875 C-455.15779882 120.39628835 -461.27692916 119.52709542 -468 117 C-469.11890625 116.58878906 -470.2378125 116.17757812 -471.390625 115.75390625 C-481.71428571 111.45238095 -481.71428571 111.45238095 -486 108 C-486 107.34 -486 106.68 -486 106 C-486.57492187 105.74734375 -487.14984375 105.4946875 -487.7421875 105.234375 C-492.93927992 102.39305804 -497.18105333 97.91087556 -499.5 92.5 C-499.665 91.675 -499.83 90.85 -500 90 C-500.66 90 -501.32 90 -502 90 C-507.86384406 79.11000389 -510.66315861 69.22372353 -510.4375 56.8125 C-510.44458984 55.70197266 -510.45167969 54.59144531 -510.45898438 53.44726562 C-510.40749326 46.74945936 -509.59890467 41.17751764 -507 35 C-506.71608398 34.30874023 -506.43216797 33.61748047 -506.13964844 32.90527344 C-505.44838955 31.26077915 -504.72771297 29.62869093 -504 28 C-503.34 28 -502.68 28 -502 28 C-502 27.01 -502 26.02 -502 25 C-503.52367187 25.38091797 -503.52367187 25.38091797 -505.078125 25.76953125 C-506.46875 26.1171875 -507.859375 26.46484375 -509.25 26.8125 C-509.91257812 26.97814453 -510.57515625 27.14378906 -511.2578125 27.31445312 C-511.94101562 27.48525391 -512.62421875 27.65605469 -513.328125 27.83203125 C-514.04806641 28.0120166 -514.76800781 28.19200195 -515.50976562 28.37744141 C-516.33154297 28.58288574 -517.15332031 28.78833008 -518 29 C-519.06412109 29.26603027 -520.12824219 29.53206055 -521.22460938 29.80615234 C-524.14973958 30.5374349 -527.07486979 31.26871745 -530 32 C-529.98952637 33.14887695 -529.97905273 34.29775391 -529.96826172 35.48144531 C-529.93169968 39.79781909 -529.90896955 44.11417957 -529.89013672 48.43066406 C-529.88016079 50.2887605 -529.86657522 52.14684158 -529.84912109 54.00488281 C-529.67444845 73.0955756 -530.72683249 90.88798057 -544 106 C-544.66 106 -545.32 106 -546 106 C-546 106.66 -546 107.32 -546 108 C-551.41176471 112 -551.41176471 112 -554 112 C-554 112.66 -554 113.32 -554 114 C-555.54074808 114.62726108 -557.08264923 115.2516901 -558.625 115.875 C-559.48351562 116.22304688 -560.34203125 116.57109375 -561.2265625 116.9296875 C-568.99947319 119.92937416 -575.8948715 120.43790433 -584.1550293 120.48046875 C-586.4011425 120.49968889 -588.64343137 120.56170504 -590.88867188 120.625 C-603.03240524 120.80307975 -614.73506202 118.56797457 -624 110 C-624 109.34 -624 108.68 -624 108 C-624.61875 107.7525 -625.2375 107.505 -625.875 107.25 C-628.35068687 105.79371361 -628.95125002 104.62187494 -630 102 C-630.66 102 -631.32 102 -632 102 C-632.66 100.02 -633.32 98.04 -634 96 C-634.66 96 -635.32 96 -636 96 C-642.19665359 83.08040807 -642.75146256 71.66588359 -642.375 57.5 C-642.34482057 55.50134289 -642.31745905 53.50264117 -642.29296875 51.50390625 C-642.22770222 46.66814299 -642.12463558 41.83458232 -642 37 C-642.76328613 36.94303955 -643.52657227 36.8860791 -644.31298828 36.82739258 C-650.54827423 36.33896995 -656.7081976 35.7329602 -662.875 34.6875 C-663.63893066 34.55923828 -664.40286133 34.43097656 -665.18994141 34.29882812 C-671.18024319 33.24443507 -676.96139586 31.73625998 -682.78125 29.9609375 C-685.79734788 29.06050051 -688.80750262 28.32590666 -691.875 27.625 C-700.03538867 25.64004059 -708.47674179 22.76162911 -716 19 C-716.33 44.41 -716.66 69.82 -717 96 C-696.54 96 -676.08 96 -655 96 C-655 103.59 -655 111.18 -655 119 C-685.03 119 -715.06 119 -746 119 C-746 78.08 -746 37.16 -746 -5 C-736.43 -5 -726.86 -5 -717 -5 C-716.67 0.94 -716.34 6.88 -716 13 C-707.13529925 17.22619454 -698.36320507 20.19714699 -688.875 22.75 C-687.25005615 23.19001343 -687.25005615 23.19001343 -685.59228516 23.63891602 C-679.29566423 25.28957448 -673.03308899 26.56508131 -666.60302734 27.57080078 C-662.71331536 28.21215453 -658.97094303 29.25595362 -655.1796875 30.31640625 C-650.84969448 31.24730156 -646.40694834 31.55930517 -642 32 C-642 19.79 -642 7.58 -642 -5 C-632.76 -5 -623.52 -5 -614 -5 C-614 8.53 -614 22.06 -614 36 C-595.5126469 35.55807124 -577.37437719 35.05683327 -559 33 C-558.67 20.46 -558.34 7.92 -558 -5 C-548.76 -5 -539.52 -5 -530 -5 C-530 5.56 -530 16.12 -530 27 C-526.90625 26.071875 -523.8125 25.14375 -520.625 24.1875 C-517.97860944 23.39358283 -515.33223831 22.59970546 -512.68457031 21.81005859 C-510.86793764 21.26189679 -509.05481987 20.70197174 -507.24511719 20.13134766 C-506.36758789 19.85726074 -505.49005859 19.58317383 -504.5859375 19.30078125 C-503.80009277 19.05110596 -503.01424805 18.80143066 -502.20458984 18.54418945 C-500 18 -500 18 -496 18 C-495.79375 17.46375 -495.5875 16.9275 -495.375 16.375 C-493.46749574 13.08021991 -490.95180616 10.40636372 -488 8 C-487.34 8 -486.68 8 -486 8 C-486 7.34 -486 6.68 -486 6 C-484.02 5.34 -482.04 4.68 -480 4 C-480 3.34 -480 2.68 -480 2 C-468.26247719 -4.32020459 -457.5374179 -6.73028322 -444.25 -6.5625 C-443.19217316 -6.55710709 -443.19217316 -6.55710709 -442.11297607 -6.55160522 C-431.36138572 -6.4730318 -421.86818727 -5.59852555 -412 -1 C-410.95585937 -0.52304687 -409.91171875 -0.04609375 -408.8359375 0.4453125 C-406.51156652 1.56587702 -404.2458483 2.73131166 -402 4 C-402 4.66 -402 5.32 -402 6 C-401.34 6 -400.68 6 -400 6 C-400 6.66 -400 7.32 -400 8 C-399.319375 8.185625 -398.63875 8.37125 -397.9375 8.5625 C-393.88073931 10.54772332 -390.76298484 13.42484094 -388 17 C-388 17.99 -388 18.98 -388 20 C-387.34 20 -386.68 20 -386 20 C-384 23 -384 23 -384 26 C-383.34 26 -382.68 26 -382 26 C-381.36803616 27.49707939 -380.74485607 28.99786703 -380.125 30.5 C-379.77695312 31.3353125 -379.42890625 32.170625 -379.0703125 33.03125 C-376.18011599 41.04785346 -375.61524115 48.2015661 -375.625 56.6875 C-375.62371094 57.8412915 -375.62242187 58.99508301 -375.62109375 60.18383789 C-375.71350011 67.6178246 -376.37290664 73.83021918 -379.125 80.77734375 C-380.18315501 83.06713192 -380.18315501 83.06713192 -380 86 C-379.15695312 85.566875 -378.31390625 85.13375 -377.4453125 84.6875 C-376.34960938 84.130625 -375.25390625 83.57375 -374.125 83 C-373.03445313 82.443125 -371.94390625 81.88625 -370.8203125 81.3125 C-368 80 -368 80 -366 80 C-366 79.34 -366 78.68 -366 78 C-364.3767313 77.3291288 -362.75132422 76.66342971 -361.125 76 C-359.76761719 75.443125 -359.76761719 75.443125 -358.3828125 74.875 C-356 74 -356 74 -354 74 C-354 47.93 -354 21.86 -354 -5 C-346.08 -5 -338.16 -5 -330 -5 C-324 2 -324 2 -324 4 C-323.34 4 -322.68 4 -322 4 C-320.4921875 5.6796875 -320.4921875 5.6796875 -318.875 7.875 C-318.33617187 8.59429687 -317.79734375 9.31359375 -317.2421875 10.0546875 C-316 12 -316 12 -316 14 C-315.34 14 -314.68 14 -314 14 C-312.4921875 15.42578125 -312.4921875 15.42578125 -310.875 17.3125 C-310.33617187 17.92738281 -309.79734375 18.54226563 -309.2421875 19.17578125 C-308 21 -308 21 -308 24 C-307.34 24 -306.68 24 -306 24 C-306 24.66 -306 25.32 -306 26 C-305.34 26 -304.68 26 -304 26 C-302.4921875 27.6796875 -302.4921875 27.6796875 -300.875 29.875 C-300.33617187 30.59429687 -299.79734375 31.31359375 -299.2421875 32.0546875 C-298 34 -298 34 -298 36 C-297.34 36 -296.68 36 -296 36 C-294.0546875 38.1171875 -294.0546875 38.1171875 -291.875 40.875 C-291.15054687 41.77992188 -290.42609375 42.68484375 -289.6796875 43.6171875 C-288 46 -288 46 -288 48 C-287.34 48 -286.68 48 -286 48 C-284.4921875 49.6796875 -284.4921875 49.6796875 -282.875 51.875 C-282.33617187 52.59429687 -281.79734375 53.31359375 -281.2421875 54.0546875 C-280 56 -280 56 -280 58 C-279.34 58 -278.68 58 -278 58 C-276.4921875 59.6796875 -276.4921875 59.6796875 -274.875 61.875 C-274.33617187 62.59429688 -273.79734375 63.31359375 -273.2421875 64.0546875 C-272 66 -272 66 -272 68 C-271.34 68 -270.68 68 -270 68 C-269.98969254 67.10019913 -269.97938507 66.20039825 -269.96876526 65.27333069 C-269.87096659 56.81179214 -269.7684778 48.3503264 -269.66066074 39.88890934 C-269.60539215 35.53835194 -269.55196601 31.18778788 -269.50268555 26.8371582 C-269.45509986 22.6420379 -269.40275942 18.44700188 -269.34705925 14.25198174 C-269.32660934 12.64795455 -269.30790071 11.04390423 -269.29092598 9.4398365 C-269.26694003 7.20077231 -269.23687806 4.96186884 -269.20532227 2.72290039 C-269.18200584 0.80762291 -269.18200584 0.80762291 -269.15821838 -1.14634705 C-269 -4 -269 -4 -268 -5 C-266.01242972 -5.09983058 -264.0213248 -5.13080753 -262.03125 -5.1328125 C-260.82082031 -5.13410156 -259.61039063 -5.13539063 -258.36328125 -5.13671875 C-257.08839844 -5.13285156 -255.81351563 -5.12898438 -254.5 -5.125 C-253.22511719 -5.12886719 -251.95023438 -5.13273437 -250.63671875 -5.13671875 C-248.82107422 -5.13478516 -248.82107422 -5.13478516 -246.96875 -5.1328125 C-245.84919922 -5.13168457 -244.72964844 -5.13055664 -243.57617188 -5.12939453 C-241 -5 -241 -5 -240 -4 C-239.90474633 -1.07805335 -239.87447264 1.82020329 -239.88647461 4.74243164 C-239.88632858 5.6594133 -239.88618256 6.57639496 -239.8860321 7.52116394 C-239.8867316 10.56751836 -239.89452572 13.61381245 -239.90234375 16.66015625 C-239.9042078 18.76622993 -239.90563176 20.87230403 -239.90663147 22.9783783 C-239.91045769 28.53342883 -239.92028886 34.08845341 -239.93133545 39.64349365 C-239.94154733 45.3072474 -239.94612861 50.97100533 -239.95117188 56.63476562 C-239.96191104 67.75652369 -239.97950868 78.87825563 -240 90 C-230.76 89.67 -221.52 89.34 -212 89 C-212 57.98 -212 26.96 -212 -5 C-180.98 -5 -149.96 -5 -118 -5 C-118 2.59 -118 10.18 -118 18 C-139.45 18 -160.9 18 -183 18 C-183 26.91 -183 35.82 -183 45 C-163.86 45 -144.72 45 -125 45 C-125 52.59 -125 60.18 -125 68 C-143.81 68 -162.62 68 -182 68 C-182 72.62 -182 77.24 -182 82 C-180.37432981 81.59358245 -178.74866891 81.18712772 -177.12304688 80.78051758 C-175.69220986 80.42297286 -174.26121676 80.06605228 -172.83007812 79.7097168 C-169.10162968 78.78045394 -165.376138 77.84191004 -161.65625 76.87890625 C-160.95886719 76.70004883 -160.26148438 76.52119141 -159.54296875 76.33691406 C-157.60076923 75.83836667 -155.65972589 75.33532149 -153.71875 74.83203125 C-136.92402267 71.07438742 -116.47395898 70.79769716 -100 76 C-100.15984375 74.90171875 -100.3196875 73.8034375 -100.484375 72.671875 C-102.06510673 59.92512341 -102.25608753 46.20770473 -98 34 C-97.608125 32.7625 -97.21625 31.525 -96.8125 30.25 C-96.544375 29.5075 -96.27625 28.765 -96 28 C-95.34 28 -94.68 28 -94 28 C-93.34 26.02 -92.68 24.04 -92 22 C-91.34 22 -90.68 22 -90 22 C-89.855625 21.38125 -89.71125 20.7625 -89.5625 20.125 C-89 18 -89 18 -88 16 C-87.34 16 -86.68 16 -86 16 C-86 15.34 -86 14.68 -86 14 C-85.34 14 -84.68 14 -84 14 C-84 13.34 -84 12.68 -84 12 C-83.34 12 -82.68 12 -82 12 C-82 11.34 -82 10.68 -82 10 C-81.34 10 -80.68 10 -80 10 C-80 9.34 -80 8.68 -80 8 C-77.8828125 6.4921875 -77.8828125 6.4921875 -75.125 4.875 C-73.76761719 4.06675781 -73.76761719 4.06675781 -72.3828125 3.2421875 C-70 2 -70 2 -68 2 C-68 1.34 -68 0.68 -68 0 C-44.30351249 -8.94593621 -23.80872388 -8.88317918 0 0 Z " fill="#060606" transform="translate(872,456)"/>
<path d="M0 0 C0 0.66 0 1.32 0 2 C1.2375 2.309375 1.2375 2.309375 2.5 2.625 C6.89143822 4.35020787 10.54681549 6.77469061 14 10 C14 10.66 14 11.32 14 12 C14.66 12 15.32 12 16 12 C16 12.66 16 13.32 16 14 C16.66 14 17.32 14 18 14 C22 18.35294118 22 18.35294118 22 22 C22.66 22 23.32 22 24 22 C32.27857947 36.57029986 37.20060579 53.49564539 33.046875 70.2109375 C30.89385121 77.84874941 27.90606876 85.08542722 24 92 C23.34 92 22.68 92 22 92 C22 93.32 22 94.64 22 96 C20.125 98.25 20.125 98.25 18 100 C17.34 100 16.68 100 16 100 C16 100.66 16 101.32 16 102 C15.34 102 14.68 102 14 102 C14 102.66 14 103.32 14 104 C8.58823529 108 8.58823529 108 6 108 C6 108.66 6 109.32 6 110 C3.46080994 111.29673602 0.91885762 112.58747837 -1.625 113.875 C-2.33785156 114.23980469 -3.05070313 114.60460937 -3.78515625 114.98046875 C-18.68870078 122.5006059 -37.88156346 123.33957907 -54 119 C-53.25561083 115.8614943 -52.24162641 112.97990339 -51 110 C-51.66 110 -52.32 110 -53 110 C-53.33 108.02 -53.66 106.04 -54 104 C-54.66 104 -55.32 104 -56 104 C-57.125 100.25 -57.125 100.25 -56 98 C-57.98 98.495 -57.98 98.495 -60 99 C-60 98.01 -60 97.02 -60 96 C-60.66 96 -61.32 96 -62 96 C-63.34423339 94.34211215 -64.67618483 92.67423683 -66 91 C-68.05016161 89.2061086 -69.41333036 88.14222294 -72.0625 87.5 C-74.47543291 86.87730764 -75.45806156 85.92742305 -77 84 C-77 83.34 -77 82.68 -77 82 C-77.99 82 -78.98 82 -80 82 C-80 81.34 -80 80.68 -80 80 C-80.99 80 -81.98 80 -83 80 C-83 79.34 -83 78.68 -83 78 C-85.64 78 -88.28 78 -91 78 C-91.33 77.01 -91.66 76.02 -92 75 C-93.65 74.67 -95.3 74.34 -97 74 C-97.33 75.32 -97.66 76.64 -98 78 C-98.99 78 -99.98 78 -101 78 C-100.814375 77.46375 -100.62875 76.9275 -100.4375 76.375 C-99.85090709 73.98180663 -99.85090709 73.98180663 -100.45703125 71.515625 C-102.34577365 59.28635764 -102.08273414 45.71047645 -98 34 C-97.608125 32.7625 -97.21625 31.525 -96.8125 30.25 C-96.4103125 29.13625 -96.4103125 29.13625 -96 28 C-95.34 28 -94.68 28 -94 28 C-93.34 26.02 -92.68 24.04 -92 22 C-91.34 22 -90.68 22 -90 22 C-89.7834375 21.071875 -89.7834375 21.071875 -89.5625 20.125 C-89 18 -89 18 -88 16 C-87.34 16 -86.68 16 -86 16 C-86 15.34 -86 14.68 -86 14 C-85.34 14 -84.68 14 -84 14 C-84 13.34 -84 12.68 -84 12 C-83.34 12 -82.68 12 -82 12 C-82 11.34 -82 10.68 -82 10 C-81.34 10 -80.68 10 -80 10 C-80 9.34 -80 8.68 -80 8 C-77.8828125 6.4921875 -77.8828125 6.4921875 -75.125 4.875 C-74.22007812 4.33617187 -73.31515625 3.79734375 -72.3828125 3.2421875 C-70 2 -70 2 -68 2 C-68 1.34 -68 0.68 -68 0 C-44.30351249 -8.94593621 -23.80872388 -8.88317918 0 0 Z " fill="#040404" transform="translate(872,456)"/>
<path d="M0 0 C5.14803296 0.00462339 10.29605382 -0.00250694 15.44408417 -0.00795984 C25.4713976 -0.01675263 35.49868074 -0.01497771 45.52599525 -0.00913456 C53.69123962 -0.00457759 61.85647561 -0.00402237 70.02172089 -0.00618219 C71.19345541 -0.00648866 72.36518993 -0.00679513 73.57243156 -0.00711088 C75.95439148 -0.00775047 78.3363514 -0.0083989 80.71831131 -0.00905606 C102.94094349 -0.01472972 125.16355905 -0.00824838 147.38618851 0.00254467 C166.36464251 0.01147746 185.34307202 0.00992457 204.32152557 0.00070715 C226.47640636 -0.01004829 248.63127266 -0.01418067 270.7861557 -0.00806832 C273.15829722 -0.00743137 275.53043874 -0.00680263 277.90258026 -0.00618219 C279.65230416 -0.00571937 279.65230416 -0.00571937 281.43737602 -0.00524719 C289.57226541 -0.00353599 297.70714545 -0.00640091 305.84203339 -0.0111413 C315.78512404 -0.01680922 325.72818322 -0.01511174 335.67127037 -0.00457981 C340.7232244 0.00059877 345.77512638 0.0028713 350.82707977 -0.00387812 C370.07533519 -0.02736365 389.27255209 0.14784211 408.49730682 1.16824865 C409.25605606 1.20815435 410.0148053 1.24806004 410.79654694 1.289175 C492.15305459 5.68450461 565.61990437 28.12822533 621.51683807 90.09348059 C623.75319173 92.75990225 625.8728052 95.47805291 627.96215057 98.26144934 C628.45279999 98.9133927 628.9434494 99.56533606 629.44896698 100.23703527 C636.92489329 110.22438805 643.87395065 120.37057371 649.96215057 131.26144934 C650.36530487 131.97349524 650.76845917 132.68554113 651.18383026 133.41916418 C675.79706529 177.20650659 682.47040777 228.25698933 685.05925751 277.74191809 C685.10166887 278.54327688 685.14408022 279.34463568 685.18777677 280.17027807 C686.18811891 299.54397054 686.24951159 318.90435197 686.22359991 338.29929876 C686.21897652 343.44733173 686.22610685 348.59535259 686.23155975 353.74338293 C686.24035254 363.77069637 686.23857762 373.7979795 686.23273447 383.82529402 C686.2281775 391.99053838 686.22762228 400.15577438 686.2297821 408.32101965 C686.2302418 410.07862144 686.2302418 410.07862144 686.23071079 411.87173033 C686.23135038 414.25369025 686.23199881 416.63565016 686.23265597 419.01761007 C686.23832963 441.24024226 686.23184829 463.46285782 686.22105524 485.68548727 C686.21212245 504.66394127 686.21367534 523.64237078 686.22289276 542.62082434 C686.2336482 564.77570513 686.23778058 586.93057143 686.23166823 609.08545446 C686.23103128 611.45759598 686.23040254 613.8297375 686.2297821 616.20187902 C686.22947355 617.36836163 686.229165 618.53484423 686.2288471 619.73667479 C686.2271359 627.87156418 686.23000082 636.00644421 686.23474121 644.14133215 C686.24040913 654.08442281 686.23871165 664.02748198 686.22817972 673.97056913 C686.22300114 679.02252317 686.22072861 684.07442515 686.22747803 689.12637854 C686.25096356 708.37463395 686.0757578 727.57185085 685.05535126 746.79660559 C684.99549271 747.93472944 684.99549271 747.93472944 684.93442491 749.0958457 C680.5390953 830.45235335 658.09537458 903.91920313 596.13011932 959.81613684 C593.46369766 962.05249049 590.745547 964.17210396 587.96215057 966.26144934 C587.31020721 966.75209875 586.65826385 967.24274817 585.98656464 967.74826574 C575.99921186 975.22419206 565.8530262 982.17324941 554.96215057 988.26144934 C554.25010468 988.66460363 553.53805878 989.06775793 552.80443573 989.48312902 C509.01709332 1014.09636405 457.96661058 1020.76970653 408.48168182 1023.35855627 C407.68032303 1023.40096763 406.87896423 1023.44337899 406.05332184 1023.48707554 C386.67962937 1024.48741767 367.31924794 1024.54881035 347.92430115 1024.52289867 C342.77626818 1024.51827528 337.62824732 1024.52540562 332.48021698 1024.53085852 C322.45290354 1024.5396513 312.42562041 1024.53787638 302.39830589 1024.53203323 C294.23306153 1024.52747626 286.06782553 1024.52692105 277.90258026 1024.52908087 C276.73084574 1024.52938733 275.55911121 1024.5296938 274.35186958 1024.53000955 C271.96990967 1024.53064914 269.58794975 1024.53129757 267.20598984 1024.53195474 C244.98335765 1024.53762839 222.7607421 1024.53114705 200.53811264 1024.520354 C181.55965864 1024.51142122 162.58122913 1024.5129741 143.60277557 1024.52219152 C121.44789478 1024.53294697 99.29302848 1024.53707935 77.13814545 1024.530967 C74.76600393 1024.53033004 72.39386241 1024.5297013 70.02172089 1024.52908087 C68.27199698 1024.52861804 68.27199698 1024.52861804 66.48692513 1024.52814586 C58.35203573 1024.52643466 50.2171557 1024.52929959 42.08226776 1024.53403997 C32.1391771 1024.5397079 22.19611793 1024.53801041 12.25303078 1024.52747849 C7.20107674 1024.52229991 2.14917477 1024.52002737 -2.90277863 1024.52677679 C-22.15103404 1024.55026232 -41.34825094 1024.37505657 -60.57300568 1023.35465002 C-61.71112953 1023.29479148 -61.71112953 1023.29479148 -62.87224579 1023.23372367 C-144.22875344 1018.83839406 -217.69560322 996.39467334 -273.59253693 934.42941809 C-275.82889058 931.76299642 -277.94850405 929.04484576 -280.03784943 926.26144934 C-280.52849884 925.60950598 -281.01914825 924.95756262 -281.52466583 924.2858634 C-289.00059214 914.29851063 -295.9496495 904.15232497 -302.03784943 893.26144934 C-302.64258087 892.19338049 -302.64258087 892.19338049 -303.25952911 891.10373449 C-327.87276414 847.31639208 -334.54610662 796.26590935 -337.13495636 746.78098059 C-337.1985734 745.57894239 -337.1985734 745.57894239 -337.26347563 744.3526206 C-338.26381776 724.97892813 -338.32521044 705.6185467 -338.29929876 686.22359991 C-338.29467537 681.07556695 -338.3018057 675.92754609 -338.30725861 670.77951574 C-338.31605139 660.75220231 -338.31427647 650.72491917 -338.30843332 640.69760466 C-338.30387635 632.5323603 -338.30332113 624.3671243 -338.30548096 616.20187902 C-338.30578742 615.0301445 -338.30609389 613.85840998 -338.30640964 612.65116835 C-338.30704923 610.26920843 -338.30769766 607.88724851 -338.30835482 605.5052886 C-338.31402848 583.28265642 -338.30754714 561.06004086 -338.29675409 538.8374114 C-338.28782131 519.85895741 -338.28937419 500.88052789 -338.29859161 481.90207434 C-338.30934706 459.74719355 -338.31347944 437.59232725 -338.30736709 415.43744421 C-338.30673013 413.06530269 -338.30610139 410.69316117 -338.30548096 408.32101965 C-338.30517241 407.15453705 -338.30486385 405.98805445 -338.30454595 404.78622389 C-338.30283475 396.6513345 -338.30569968 388.51645446 -338.31044006 380.38156652 C-338.31610799 370.43847587 -338.3144105 360.49541669 -338.30387858 350.55232954 C-338.2987 345.50037551 -338.29642746 340.44847353 -338.30317688 335.39652014 C-338.32666241 316.14826472 -338.15145666 296.95104782 -337.13105011 277.72629309 C-337.09114441 276.96754385 -337.05123872 276.20879461 -337.01012376 275.42705297 C-332.61479415 194.07054532 -310.17107343 120.60369554 -248.20581818 64.70676184 C-245.53939651 62.47040818 -242.82124585 60.35079472 -240.03784943 58.26144934 C-239.38590607 57.77079992 -238.73396271 57.28015051 -238.06226349 56.77463293 C-228.07491072 49.29870662 -217.92872505 42.34964926 -207.03784943 36.26144934 C-206.32580353 35.85829504 -205.61375763 35.45514074 -204.88013458 35.03976965 C-161.09279217 10.42653462 -110.04230943 3.75319214 -60.55738068 1.1643424 C-59.35534248 1.10072537 -59.35534248 1.10072537 -58.12902069 1.03582314 C-38.75532822 0.035481 -19.39494679 -0.02591168 0 0 Z M-20.5581131 2.71896887 C-21.69204896 2.73918152 -22.82598481 2.75939416 -23.99428236 2.78021932 C-111.38995979 4.38811704 -196.15405285 16.64970328 -264.08863068 84.12473059 C-268.36149519 88.61580714 -272.23699092 93.36745136 -276.03784943 98.26144934 C-277.04382297 99.51578635 -278.05037283 100.76966128 -279.05738068 102.02316809 C-292.7833226 119.30325898 -303.10640529 138.12169335 -312.03784943 158.26144934 C-312.34948029 158.96124914 -312.66111115 159.66104895 -312.98218536 160.38205481 C-333.93898958 208.57776768 -334.67290173 266.04078929 -335.58423615 317.78220129 C-335.60551063 318.96862239 -335.62678512 320.15504348 -335.64870429 321.37741673 C-336.20110121 353.07369816 -336.18559209 384.77121105 -336.17314971 416.47134427 C-336.17082568 422.55495284 -336.17059572 428.63855861 -336.17166519 434.72216749 C-336.17181842 435.60404551 -336.17197166 436.48592352 -336.17212953 437.39452511 C-336.17244941 439.18867745 -336.17277363 440.98282978 -336.17310213 442.77698211 C-336.17592061 459.40905047 -336.17272769 476.04111323 -336.16730176 492.67318068 C-336.16283471 506.80115779 -336.16361601 520.92912667 -336.16822052 535.05710363 C-336.17362749 551.65392195 -336.1756487 568.25073543 -336.17260826 584.8475545 C-336.17228986 586.63242916 -336.17197549 588.41730382 -336.17166519 590.20217848 C-336.17151092 591.07930137 -336.17135664 591.95642427 -336.17119769 592.86012664 C-336.17035086 598.90526572 -336.17177481 604.95040156 -336.17414474 610.99554014 C-336.18534931 642.4120737 -336.18260863 673.82326283 -335.58423615 705.23532629 C-335.55431749 706.82940363 -335.55431749 706.82940363 -335.52379441 708.45568454 C-333.95461467 789.28632224 -325.88634151 874.41009262 -267.40894318 935.77316809 C-265.40176984 937.87954275 -263.52366071 940.02756586 -261.66284943 942.26144934 C-214.97652786 995.66443509 -142.92189026 1014.58341625 -74.9377296 1019.41056633 C-69.79937925 1019.74934286 -64.65830238 1020.03520555 -59.51612091 1020.30881262 C-58.71326373 1020.35186411 -57.91040655 1020.3949156 -57.08322036 1020.43927169 C-41.8045509 1021.24860155 -26.54079797 1021.6922696 -11.24068332 1021.85507965 C-8.98778815 1021.87956294 -6.73493833 1021.90681742 -4.48208046 1021.93451071 C52.96002805 1022.62673537 110.41635451 1022.41165615 167.86162226 1022.39091226 C180.50573053 1022.38642845 193.14982957 1022.38722883 205.79393768 1022.39182043 C220.72898903 1022.39724196 235.66403499 1022.39924185 250.59908718 1022.39620817 C252.20794642 1022.39588983 253.81680566 1022.39557546 255.4256649 1022.3952651 C256.21588457 1022.39511083 257.00610424 1022.39495655 257.82026996 1022.3947976 C263.22813072 1022.39395594 268.63598784 1022.39536256 274.04384804 1022.39774466 C304.53470882 1022.40996239 335.01775508 1022.32046589 365.50487518 1021.80783606 C366.719878 1021.78789028 367.93488081 1021.76794451 369.18670189 1021.74739432 C388.48212963 1021.42189986 407.722692 1020.80835312 426.96215057 1019.26144934 C428.21399139 1019.16106359 429.46583221 1019.06067785 430.7556076 1018.95725012 C463.13307149 1016.23782808 498.05491314 1011.62299778 527.96215057 998.26144934 C529.33935272 997.64874182 529.33935272 997.64874182 530.74437714 997.02365637 C566.5543755 980.88466093 599.69959832 957.47489494 623.96215057 926.26144934 C624.74976776 925.27918371 625.53738495 924.29691809 626.34886932 923.28488684 C676.31969568 860.48304577 682.27435319 780.99551987 683.51634979 703.70261145 C683.54779323 701.81084482 683.54779323 701.81084482 683.57987189 699.88086069 C684.06776356 669.94928585 684.11063536 640.01910687 684.09745098 610.08421505 C684.09511433 604.63113034 684.09490173 599.17804874 684.09596634 593.72496367 C684.09611957 592.93061822 684.09627281 592.13627278 684.09643068 591.31785626 C684.09675061 589.70091335 684.09707483 588.08397045 684.09740327 586.46702754 C684.10021713 571.49908222 684.09703838 556.53114315 684.09160291 541.56319886 C684.08715368 528.92411967 684.08795761 516.28504984 684.09252167 503.64597082 C684.21223662 417.56316838 684.21223662 417.56316838 683.60652685 331.48367715 C683.58033363 329.30895054 683.5565853 327.13421024 683.53344345 324.95944929 C683.36391285 309.61209209 682.84459328 294.2999049 682.03295135 278.9745841 C681.99364683 278.21887621 681.9543423 277.46316831 681.91384673 276.68456018 C678.30855216 208.48569927 663.98474387 139.80202982 615.33324432 88.74973059 C613.32607098 86.64335593 611.44796186 84.49533281 609.58715057 82.26144934 C582.92992035 51.76909872 542.71442465 28.84222508 503.96215057 18.26144934 C503.05465057 18.01298254 502.14715057 17.76451574 501.21215057 17.50851965 C477.4541382 11.14130777 453.24529222 7.59701157 428.77465057 5.51144934 C428.08163849 5.45228338 427.3886264 5.39311743 426.67461395 5.33215857 C407.09212609 3.69653963 387.46271606 3.06915959 367.82079315 2.70725012 C366.70938135 2.68628783 365.59796954 2.66532553 364.45287859 2.64372802 C333.29246166 2.07308167 302.12907103 2.11397272 270.96460898 2.12614893 C264.85997107 2.128471 258.75533594 2.12870393 252.65069771 2.12763357 C251.76650403 2.12748034 250.88231035 2.12732711 249.97132293 2.12716923 C248.17250619 2.12684935 246.37368945 2.12652514 244.57487271 2.12619664 C227.88406886 2.12337563 211.1932706 2.12657467 194.50246767 2.131997 C180.32992754 2.13645955 166.15739563 2.13568696 151.98485565 2.13107824 C135.33968736 2.12566763 118.6945239 2.12365243 102.04935485 2.12669051 C100.25792015 2.1270089 98.46648544 2.12732327 96.67505074 2.12763357 C95.79470091 2.12778785 94.91435107 2.12794212 94.00732398 2.12810107 C87.94559529 2.1289472 81.88386984 2.12752559 75.82214165 2.12515402 C43.69192967 2.11371334 11.56779038 2.13907908 -20.5581131 2.71896887 Z " fill="#E4E4E4" transform="translate(338.03784942626953,-0.26144933700561523)"/>
<path d="M0 0 C0.79623779 0.00418945 1.59247559 0.00837891 2.4128418 0.01269531 C10.94497373 0.17615611 17.77065674 1.42218794 24.25 7.3125 C25.24 7.6425 26.23 7.9725 27.25 8.3125 C27.25 8.9725 27.25 9.6325 27.25 10.3125 C27.91 10.3125 28.57 10.3125 29.25 10.3125 C30.6171875 11.7109375 30.6171875 11.7109375 32.125 13.6875 C32.61742187 14.31398438 33.10984375 14.94046875 33.6171875 15.5859375 C38.26455299 23.34637078 39.90118242 30.31714621 39.75 39.3125 C39.77320313 40.69308594 39.77320313 40.69308594 39.796875 42.1015625 C39.75859508 48.89624796 38.16178298 54.19709247 35.25 60.3125 C34.59 60.3125 33.93 60.3125 33.25 60.3125 C32.26 63.2825 32.26 63.2825 31.25 66.3125 C30.59 66.3125 29.93 66.3125 29.25 66.3125 C29.25 66.9725 29.25 67.6325 29.25 68.3125 C28.59 68.3125 27.93 68.3125 27.25 68.3125 C27.25 68.9725 27.25 69.6325 27.25 70.3125 C24.28 71.3025 24.28 71.3025 21.25 72.3125 C21.25 72.9725 21.25 73.6325 21.25 74.3125 C14.07202738 77.73857228 8.04871562 78.94437876 0.125 78.8125 C-0.81214844 78.82796875 -1.74929688 78.8434375 -2.71484375 78.859375 C-9.12884845 78.82349246 -13.2315451 77.58461914 -18.75 74.3125 C-18.75 73.6525 -18.75 72.9925 -18.75 72.3125 C-20.07 72.3125 -21.39 72.3125 -22.75 72.3125 C-22.75 71.6525 -22.75 70.9925 -22.75 70.3125 C-23.41 70.3125 -24.07 70.3125 -24.75 70.3125 C-24.75 69.6525 -24.75 68.9925 -24.75 68.3125 C-25.41 68.3125 -26.07 68.3125 -26.75 68.3125 C-26.75 67.6525 -26.75 66.9925 -26.75 66.3125 C-27.41 66.3125 -28.07 66.3125 -28.75 66.3125 C-30.75 63.3125 -30.75 63.3125 -30.75 60.3125 C-31.41 60.3125 -32.07 60.3125 -32.75 60.3125 C-32.75 58.9925 -32.75 57.6725 -32.75 56.3125 C-33.41 56.3125 -34.07 56.3125 -34.75 56.3125 C-37.09178741 50.72967881 -37.11695612 45.51496918 -37.125 39.5625 C-37.14949219 38.6240625 -37.17398438 37.685625 -37.19921875 36.71875 C-37.2372842 27.53228873 -34.45628972 19.54046698 -28.75 12.3125 C-28.09 12.3125 -27.43 12.3125 -26.75 12.3125 C-26.75 11.6525 -26.75 10.9925 -26.75 10.3125 C-26.09 10.3125 -25.43 10.3125 -24.75 10.3125 C-24.75 9.6525 -24.75 8.9925 -24.75 8.3125 C-22.7734375 6.875 -22.7734375 6.875 -20.125 5.3125 C-19.26648438 4.796875 -18.40796875 4.28125 -17.5234375 3.75 C-11.60036037 0.68001073 -6.55696362 -0.04674217 0 0 Z " fill="#E2E2E2" transform="translate(836.75,473.6875)"/>
<path d="M0 0 C0 0.66 0 1.32 0 2 C0.53625 2.226875 1.0725 2.45375 1.625 2.6875 C4.84930329 4.46935182 7.29649295 6.48082298 10 9 C10 9.99 10 10.98 10 12 C10.66 12 11.32 12 12 12 C14.89523495 16.97618507 17.11429588 21.09423181 16 27 C14.16669296 29.21338289 12.45126136 30.3821675 10 32 C9.34 32 8.68 32 8 32 C8 32.66 8 33.32 8 34 C6.02 34.66 4.04 35.32 2 36 C2 36.66 2 37.32 2 38 C1.3709375 38.24234375 0.741875 38.4846875 0.09375 38.734375 C-4.81470075 40.65635873 -9.55901894 42.71495123 -14.25 45.1171875 C-17.62380603 46.81915215 -20.20151073 48 -24 48 C-24 48.66 -24 49.32 -24 50 C-25.98 50.66 -27.96 51.32 -30 52 C-30 52.66 -30 53.32 -30 54 C-31.98 54.66 -33.96 55.32 -36 56 C-36 56.66 -36 57.32 -36 58 C-36.66 58 -37.32 58 -38 58 C-38 58.66 -38 59.32 -38 60 C-38.66 60 -39.32 60 -40 60 C-40.66 62.64 -41.32 65.28 -42 68 C-45.36179774 66.55922954 -47.59156268 64.75249979 -50 62 C-50 61.34 -50 60.68 -50 60 C-50.66 60 -51.32 60 -52 60 C-52.98929461 58.13032395 -53.96600469 56.25398622 -54.9375 54.375 C-55.48277344 53.33085938 -56.02804687 52.28671875 -56.58984375 51.2109375 C-59.59941677 44.35811473 -59.19488586 37.34719677 -59 30 C-58.99484375 29.29617188 -58.9896875 28.59234375 -58.984375 27.8671875 C-58.59735432 21.26019154 -55.10926137 15.70506673 -52 10 C-51.34 10 -50.68 10 -50 10 C-49.62875 9.071875 -49.62875 9.071875 -49.25 8.125 C-47.79371361 5.64931313 -46.62187494 5.04874998 -44 4 C-44 3.34 -44 2.68 -44 2 C-42.41925436 1.18247697 -40.83528777 0.37118003 -39.25 -0.4375 C-37.92742187 -1.11619141 -37.92742187 -1.11619141 -36.578125 -1.80859375 C-25.51493041 -6.92113064 -10.74967256 -4.72142481 0 0 Z " fill="#E8E8E8" transform="translate(450,478)"/>
<path d="M0 0 C0 12.54 0 25.08 0 38 C-0.66 38 -1.32 38 -2 38 C-2.0928125 39.2375 -2.0928125 39.2375 -2.1875 40.5 C-3.67687623 46.91577452 -6.77017861 51.53543415 -12.0625 55.5 C-19.54130867 59.6523794 -29.69956247 59.26713685 -38 58 C-45.48280667 54.96620069 -50.60414804 49.26856824 -54 42 C-54 40.68 -54 39.36 -54 38 C-54.66 38 -55.32 38 -56 38 C-56 26.12 -56 14.24 -56 2 C-51.55660156 1.90912109 -51.55660156 1.90912109 -47.0234375 1.81640625 C-44.144019 1.75453965 -41.26463683 1.69118399 -38.38525391 1.62768555 C-36.38919327 1.58446185 -34.39309864 1.54277826 -32.39697266 1.50268555 C-29.52235691 1.44467761 -26.64791025 1.38107209 -23.7734375 1.31640625 C-22.44184097 1.29133751 -22.44184097 1.29133751 -21.08334351 1.26576233 C-17.61439584 1.18343556 -14.31660787 1.0529005 -10.88916016 0.48022461 C-8 0 -8 0 0 0 Z " fill="#EAEAEA" transform="translate(314,494)"/>
<path d="M0 0 C0.55267282 9.62060099 -1.32329009 17.53738206 -6 26 C-6.66 26 -7.32 26 -8 26 C-8 27.32 -8 28.64 -8 30 C-10.30078125 32.140625 -10.30078125 32.140625 -13.3125 34.25 C-14.29863281 34.95640625 -15.28476562 35.6628125 -16.30078125 36.390625 C-19 38 -19 38 -22 38 C-22 38.66 -22 39.32 -22 40 C-27.64987443 42.39547041 -32.97208387 42.33248646 -39 42.3125 C-40.45792969 42.33666992 -40.45792969 42.33666992 -41.9453125 42.36132812 C-47.40635034 42.36504818 -51.25904598 42.03517158 -56 39 C-56.2037823 35.33191859 -55.92805624 33.13309139 -54 30 C-47.15843801 23.83378533 -38.47121379 20.06001782 -30.25292969 16.09863281 C-27.83591279 14.91998348 -25.4365557 13.71003578 -23.0390625 12.4921875 C-21.81026367 11.86932861 -21.81026367 11.86932861 -20.55664062 11.23388672 C-18.95786173 10.42261879 -17.36017052 9.60920313 -15.76367188 8.79345703 C-10.22362376 6 -10.22362376 6 -8 6 C-8 5.34 -8 4.68 -8 4 C-2.58823529 0 -2.58823529 0 0 0 Z " fill="#E4E4E4" transform="translate(468,510)"/>
<path d="M0 0 C4.29 0.66 8.58 1.32 13 2 C13 2.66 13 3.32 13 4 C13.99 4 14.98 4 16 4 C16 4.66 16 5.32 16 6 C16.99 6 17.98 6 19 6 C19.33 7.32 19.66 8.64 20 10 C22.31 10.33 24.62 10.66 27 11 C27.33 11.99 27.66 12.98 28 14 C28.99 14.33 29.98 14.66 31 15 C31 15.66 31 16.32 31 17 C31.99 17.33 32.98 17.66 34 18 C34 18.66 34 19.32 34 20 C35.98 20.66 37.96 21.32 40 22 C40 23.98 40 25.96 40 28 C41.32 28.33 42.64 28.66 44 29 C43.67 30.65 43.34 32.3 43 34 C43.66 34 44.32 34 45 34 C43.125 39.75 43.125 39.75 42 42 C36.94744036 41.36843005 32.70406799 39.86540627 28 38 C28 37.34 28 36.68 28 36 C27.42765625 35.88527344 26.8553125 35.77054688 26.265625 35.65234375 C23.78528344 34.93817644 21.93631303 33.92692128 19.75 32.5625 C19.04359375 32.13066406 18.3371875 31.69882812 17.609375 31.25390625 C17.07828125 30.84011719 16.5471875 30.42632813 16 30 C16 29.34 16 28.68 16 28 C15.34 28 14.68 28 14 28 C14 27.34 14 26.68 14 26 C13.34 26 12.68 26 12 26 C12 25.34 12 24.68 12 24 C11.34 24 10.68 24 10 24 C10 23.34 10 22.68 10 22 C9.34 22 8.68 22 8 22 C6.4921875 19.8828125 6.4921875 19.8828125 4.875 17.125 C4.33617187 16.22007812 3.79734375 15.31515625 3.2421875 14.3828125 C2 12 2 12 2 10 C1.34 10 0.68 10 0 10 C0 9.34 0 8.68 0 8 C0.66 8 1.32 8 2 8 C1.855625 7.4225 1.71125 6.845 1.5625 6.25 C1.04166667 4.16666667 0.52083333 2.08333333 0 0 Z " fill="#041211" transform="translate(776,532)"/>
<path d="M0 0 C2.37810443 1.04042069 4.71507792 2.08215734 7 3.3125 C7 3.9725 7 4.6325 7 5.3125 C7.66 5.3125 8.32 5.3125 9 5.3125 C9 5.9725 9 6.6325 9 7.3125 C10.0209375 7.5909375 10.0209375 7.5909375 11.0625 7.875 C15.11926069 9.86022332 18.23701516 12.73734094 21 16.3125 C21 17.3025 21 18.2925 21 19.3125 C21.66 19.3125 22.32 19.3125 23 19.3125 C25 22.3125 25 22.3125 25 25.3125 C25.66 25.3125 26.32 25.3125 27 25.3125 C27.69685498 26.9335103 28.38222861 28.55946066 29.0625 30.1875 C29.44535156 31.09242188 29.82820313 31.99734375 30.22265625 32.9296875 C31 35.3125 31 35.3125 30 37.3125 C29.29875 37.003125 28.5975 36.69375 27.875 36.375 C24.91063343 35.27947322 22.12301892 34.74827008 19 34.3125 C18.67 32.9925 18.34 31.6725 18 30.3125 C15.36 30.3125 12.72 30.3125 10 30.3125 C9.67 28.9925 9.34 27.6725 9 26.3125 C8.34 26.3125 7.68 26.3125 7 26.3125 C6.6596875 25.1059375 6.6596875 25.1059375 6.3125 23.875 C5.879375 23.029375 5.44625 22.18375 5 21.3125 C2.60280568 20.63291397 2.60280568 20.63291397 0 20.3125 C-2.3125 18.875 -2.3125 18.875 -4 17.3125 C-4 16.6525 -4 15.9925 -4 15.3125 C-4.66 14.9825 -5.32 14.6525 -6 14.3125 C-5.34 13.3225 -4.68 12.3325 -4 11.3125 C-5.32 11.3125 -6.64 11.3125 -8 11.3125 C-7.67 9.9925 -7.34 8.6725 -7 7.3125 C-7.66 7.3125 -8.32 7.3125 -9 7.3125 C-8.09416548 4.51951022 -7.22869279 2.56569559 -5.25 0.375 C-3 -0.6875 -3 -0.6875 0 0 Z " fill="#081A18" transform="translate(463,456.6875)"/>
<path d="M0 0 C0.66 1.65 1.32 3.3 2 5 C2.66 5 3.32 5 4 5 C4 5.66 4 6.32 4 7 C4.66 7 5.32 7 6 7 C5.49396008 9.16874252 5.00016187 10.99967627 4 13 C3.34 13 2.68 13 2 13 C2 13.66 2 14.32 2 15 C1.34 15 0.68 15 0 15 C0 15.66 0 16.32 0 17 C-0.66 17 -1.32 17 -2 17 C-2 17.66 -2 18.32 -2 19 C-8.49428742 22.09514975 -14.73197691 24.41535186 -22 23 C-24.2890625 21.47265625 -24.2890625 21.47265625 -26 20 C-25.125 15.25 -25.125 15.25 -24 13 C-23.34 13 -22.68 13 -22 13 C-21.92136719 12.40316406 -21.84273437 11.80632813 -21.76171875 11.19140625 C-20.02515319 6.19544073 -13.16106847 3.68298145 -8.8125 1.125 C-5.67843873 -0.12862451 -3.34529469 -0.23894962 0 0 Z " fill="#E1E1E1" transform="translate(586,547)"/>
<path d="M0 0 C0 0.66 0 1.32 0 2 C0.99 1.67 1.98 1.34 3 1 C3 1.66 3 2.32 3 3 C3.66 3 4.32 3 5 3 C5.12375 3.5775 5.2475 4.155 5.375 4.75 C6.00648824 7.02335767 6.88858191 8.9253529 8 11 C7.01 12.485 7.01 12.485 6 14 C6.66 14 7.32 14 8 14 C8 14.66 8 15.32 8 16 C8.66 16 9.32 16 10 16 C10.33 14.68 10.66 13.36 11 12 C11.66 12 12.32 12 13 12 C14.3442623 17.37704918 14.3442623 17.37704918 12.6875 20.375 C11 22 11 22 9 22 C8.67 22.66 8.34 23.32 8 24 C6.02 23.34 4.04 22.68 2 22 C2 21.34 2 20.68 2 20 C1.42765625 19.88527344 0.8553125 19.77054688 0.265625 19.65234375 C-2.21471656 18.93817644 -4.06368697 17.92692128 -6.25 16.5625 C-6.95640625 16.13066406 -7.6628125 15.69882812 -8.390625 15.25390625 C-8.92171875 14.84011719 -9.4528125 14.42632813 -10 14 C-10 13.34 -10 12.68 -10 12 C-10.66 12 -11.32 12 -12 12 C-12 11.34 -12 10.68 -12 10 C-12.66 10 -13.32 10 -14 10 C-14 9.34 -14 8.68 -14 8 C-14.66 8 -15.32 8 -16 8 C-16 7.34 -16 6.68 -16 6 C-16.66 6 -17.32 6 -18 6 C-18 5.34 -18 4.68 -18 4 C-17.34 4 -16.68 4 -16 4 C-16 3.34 -16 2.68 -16 2 C-15.37351562 1.86722656 -14.74703125 1.73445312 -14.1015625 1.59765625 C-13.28429687 1.42105469 -12.46703125 1.24445312 -11.625 1.0625 C-10.81289063 0.88847656 -10.00078125 0.71445312 -9.1640625 0.53515625 C-3.57554945 -0.84684066 -3.57554945 -0.84684066 0 0 Z " fill="#131A19" transform="translate(802,548)"/>
<path d="M0 0 C2.97 0 5.94 0 9 0 C9 1.98 9 3.96 9 6 C10.2375 5.9175 11.475 5.835 12.75 5.75 C16.02245691 5.73839554 16.76991555 5.82743667 19.5 7.875 C21 10 21 10 21 12 C21.66 12 22.32 12 23 12 C23 8.04 23 4.08 23 0 C27.62 0 32.24 0 37 0 C37 5.61 37 11.22 37 17 C35.68 17 34.36 17 33 17 C33 12.71 33 8.42 33 4 C31.02 4 29.04 4 27 4 C27 7.3 27 10.6 27 14 C26.34 14 25.68 14 25 14 C24.67 14.99 24.34 15.98 24 17 C23.2575 16.814375 22.515 16.62875 21.75 16.4375 C19.13665904 15.83583095 19.13665904 15.83583095 17.15625 16.46875 C14.62192943 17.09314782 12.35670072 17.09679869 9.75 17.0625 C7.39875 17.0315625 7.39875 17.0315625 5 17 C5 12.71 5 8.42 5 4 C3.35 3.67 1.7 3.34 0 3 C0 2.01 0 1.02 0 0 Z " fill="#222222" transform="translate(187,426)"/>
<path d="M0 0 C1.65 0 3.3 0 5 0 C5.33 3.96 5.66 7.92 6 12 C6.66 11.01 7.32 10.02 8 9 C8.66 9 9.32 9 10 9 C10.2475 8.2575 10.495 7.515 10.75 6.75 C12.12389704 3.72742651 13.40563834 2.06022838 16 0 C17.32 0 18.64 0 20 0 C20 7.26 20 14.52 20 22 C18.68 22 17.36 22 16 22 C16 17.05 16 12.1 16 7 C15.34 7 14.68 7 14 7 C13.71125 7.763125 13.4225 8.52625 13.125 9.3125 C12 12 12 12 10 15 C9.34 15 8.68 15 8 15 C7.71125 15.78375 7.4225 16.5675 7.125 17.375 C6 20 6 20 4 22 C2.68 22 1.36 22 0 22 C0 14.74 0 7.48 0 0 Z " fill="#2A2A2A" transform="translate(126,421)"/>
<path d="M0 0 C0.66 0 1.32 0 2 0 C2 0.66 2 1.32 2 2 C2.66 2 3.32 2 4 2 C4 2.66 4 3.32 4 4 C4.680625 4.185625 5.36125 4.37125 6.0625 4.5625 C10.11926069 6.54772332 13.23701516 9.42484094 16 13 C16 13.99 16 14.98 16 16 C16.66 16 17.32 16 18 16 C18.66 17.32 19.32 18.64 20 20 C17.08500057 20.79560764 14.25438581 21.25322499 11.25 21.5625 C10.45078125 21.64628906 9.6515625 21.73007812 8.828125 21.81640625 C8.22484375 21.87699219 7.6215625 21.93757813 7 22 C7 20 7 20 8 19 C5.05270463 17.84188612 5.05270463 17.84188612 2 18 C2 17.34 2 16.68 2 16 C1.34 16 0.68 16 0 16 C0 15.34 0 14.68 0 14 C-0.66 14 -1.32 14 -2 14 C-2.33 13.01 -2.66 12.02 -3 11 C-2.67 10.34 -2.34 9.68 -2 9 C-3.9254644 7.8509288 -3.9254644 7.8509288 -6 8 C-5.25 6.0625 -5.25 6.0625 -4 4 C-1.875 3.25 -1.875 3.25 0 3 C0 2.01 0 1.02 0 0 Z " fill="#192423" transform="translate(468,460)"/>
<path d="M0 0 C19.14 0 38.28 0 58 0 C58 7.59 58 15.18 58 23 C39.19 23 20.38 23 1 23 C1 27.62 1 32.24 1 37 C2.32 37.33 3.64 37.66 5 38 C3.35 38 1.7 38 0 38 C0 32.39 0 26.78 0 21 C18.48 21 36.96 21 56 21 C56 14.4 56 7.8 56 1 C37.52 1 19.04 1 0 1 C0 0.67 0 0.34 0 0 Z " fill="#595959" transform="translate(689,501)"/>
<path d="M0 0 C7.11008111 -0.4820394 7.11008111 -0.4820394 11 1.625 C13 4 13 4 13 10 C9.04 10 5.08 10 1 10 C1.33 10.66 1.66 11.32 2 12 C4.97 12 7.94 12 11 12 C11.33 13.32 11.66 14.64 12 16 C10.41986783 16.25028811 8.83557694 16.47440946 7.25 16.6875 C5.92742187 16.87892578 5.92742187 16.87892578 4.578125 17.07421875 C1.41693303 16.98321474 0.22937052 16.19290886 -2 14 C-2 13.34 -2 12.68 -2 12 C-2.66 12 -3.32 12 -4 12 C-4.17942163 8.05272412 -4.09350689 5.4019487 -2 2 C-1.34 2 -0.68 2 0 2 C0 1.34 0 0.68 0 0 Z " fill="#2D2D2D" transform="translate(290,426)"/>
<path d="M0 0 C5.61 0 11.22 0 17 0 C17 5.61 17 11.22 17 17 C15.35 17 13.7 17 12 17 C12 12.71 12 8.42 12 4 C9.69 4 7.38 4 5 4 C5 8.29 5 12.58 5 17 C3.35 17 1.7 17 0 17 C0 11.39 0 5.78 0 0 Z " fill="#313131" transform="translate(168,426)"/>
<path d="M0 0 C1.32 0 2.64 0 4 0 C4.33 2.97 4.66 5.94 5 9 C5.66 8.01 6.32 7.02 7 6 C7.66 6 8.32 6 9 6 C9.433125 5.071875 9.433125 5.071875 9.875 4.125 C11 2 11 2 13 0 C14.32 0 15.64 0 17 0 C17 5.61 17 11.22 17 17 C15.35 17 13.7 17 12 17 C12 14.03 12 11.06 12 8 C11.01 8.495 11.01 8.495 10 9 C9.67 9.99 9.34 10.98 9 12 C8.34 12 7.68 12 7 12 C7 12.66 7 13.32 7 14 C6.34 14 5.68 14 5 14 C4.67 14.99 4.34 15.98 4 17 C2.68 17 1.36 17 0 17 C0 11.39 0 5.78 0 0 Z " fill="#4F4F4F" transform="translate(251,426)"/>
<path d="M0 0 C4.62 0 9.24 0 14 0 C14 5.61 14 11.22 14 17 C12.68 17 11.36 17 10 17 C10 12.71 10 8.42 10 4 C8.02 4 6.04 4 4 4 C4 7.3 4 10.6 4 14 C3.34 14 2.68 14 2 14 C1.67 14.99 1.34 15.98 1 17 C-1.31 16.67 -3.62 16.34 -6 16 C-5.34 13.36 -4.68 10.72 -4 8 C-3.34 9.32 -2.68 10.64 -2 12 C-1.34 12 -0.68 12 0 12 C0 8.04 0 4.08 0 0 Z " fill="#393939" transform="translate(210,426)"/>
<path d="M0 0 C2.475 0.99 2.475 0.99 5 2 C5 2.66 5 3.32 5 4 C5.99 4.33 6.98 4.66 8 5 C8 5.66 8 6.32 8 7 C9.98 7.66 11.96 8.32 14 9 C14 10.98 14 12.96 14 15 C15.32 15.33 16.64 15.66 18 16 C17.67 17.65 17.34 19.3 17 21 C17.66 21 18.32 21 19 21 C17.125 26.75 17.125 26.75 16 29 C14.02 28.67 12.04 28.34 10 28 C9.67 27.01 9.34 26.02 9 25 C9.66 25 10.32 25 11 25 C11.73080266 23.02253397 12.39421747 21.01927511 13 19 C12.67 18.34 12.34 17.68 12 17 C12.33 16.34 12.66 15.68 13 15 C12.34 15 11.68 15 11 15 C10.67 16.32 10.34 17.64 10 19 C9.34 19 8.68 19 8 19 C8 18.34 8 17.68 8 17 C7.34 17 6.68 17 6 17 C6 15 6 13 6 11 C5.34 10.67 4.68 10.34 4 10 C4.33 8.68 4.66 7.36 5 6 C4.34 6 3.68 6 3 6 C2.67 4.68 2.34 3.36 2 2 C1.34 2 0.68 2 0 2 C0 1.34 0 0.68 0 0 Z " fill="#071412" transform="translate(802,545)"/>
<path d="M0 0 C1.32 0 2.64 0 4 0 C4 1.98 4 3.96 4 6 C6.64 6 9.28 6 12 6 C12 4.02 12 2.04 12 0 C13.32 0 14.64 0 16 0 C16 5.61 16 11.22 16 17 C14.68 17 13.36 17 12 17 C12 14.69 12 12.38 12 10 C9.36 10 6.72 10 4 10 C4 12.31 4 14.62 4 17 C2.68 17 1.36 17 0 17 C0 11.39 0 5.78 0 0 Z " fill="#121212" transform="translate(230,426)"/>
<path d="M0 0 C4.62 0 9.24 0 14 0 C14 5.61 14 11.22 14 17 C12.68 17 11.36 17 10 17 C10 12.71 10 8.42 10 4 C8.02 4 6.04 4 4 4 C4 7.3 4 10.6 4 14 C3.34 14 2.68 14 2 14 C1.67 14.99 1.34 15.98 1 17 C-0.32 17 -1.64 17 -3 17 C-3 15.68 -3 14.36 -3 13 C-2.34 12.67 -1.68 12.34 -1 12 C-0.53101037 9.1840151 -0.53101037 9.1840151 -0.375 5.9375 C-0.25125 3.978125 -0.1275 2.01875 0 0 Z " fill="#1A1A1A" transform="translate(308,426)"/>
<path d="M0 0 C1.32 0 2.64 0 4 0 C4.33 2.97 4.66 5.94 5 9 C5.66 8.01 6.32 7.02 7 6 C7.66 6 8.32 6 9 6 C9.226875 5.360625 9.45375 4.72125 9.6875 4.0625 C10.3371875 3.0415625 10.3371875 3.0415625 11 2 C12.65 1.67 14.3 1.34 16 1 C16 5.95 16 10.9 16 16 C15.01 16 14.02 16 13 16 C13 12.7 13 9.4 13 6 C12.34 6 11.68 6 11 6 C10.79375 6.886875 10.5875 7.77375 10.375 8.6875 C8.58918086 12.98970065 6.80331334 14.36096625 3 17 C2.01 17 1.02 17 0 17 C0 11.39 0 5.78 0 0 Z " fill="#3F3F3F" transform="translate(327,426)"/>
<path d="M0 0 C3.63 0 7.26 0 11 0 C11 0.66 11 1.32 11 2 C11.66 2 12.32 2 13 2 C12.125 6.75 12.125 6.75 11 9 C11.66 9 12.32 9 13 9 C13.125 11.375 13.125 11.375 13 14 C11 16 11 16 8.1796875 16.1953125 C7.08914062 16.17210937 5.99859375 16.14890625 4.875 16.125 C3.77929688 16.10695313 2.68359375 16.08890625 1.5546875 16.0703125 C0.71164063 16.04710937 -0.13140625 16.02390625 -1 16 C-1 14.68 -1 13.36 -1 12 C2.3 12.33 5.6 12.66 9 13 C9 12.01 9 11.02 9 10 C6.69 10 4.38 10 2 10 C2 8.68 2 7.36 2 6 C4.31 6 6.62 6 9 6 C9 5.34 9 4.68 9 4 C5.7 4 2.4 4 -1 4 C-0.67 2.68 -0.34 1.36 0 0 Z " fill="#3C3C3C" transform="translate(151,426)"/>
<path d="M0 0 C0.33 0.66 0.66 1.32 1 2 C1.33 2 1.66 2 2 2 C3.33568021 2.32380126 4.66923011 2.65657551 6 3 C6.33 4.65 6.66 6.3 7 8 C7.66 8 8.32 8 9 8 C9 8.66 9 9.32 9 10 C9.66 10 10.32 10 11 10 C11 10.66 11 11.32 11 12 C8.09451118 14.04169485 6.59857954 15 3 15 C3 14.34 3 13.68 3 13 C2.34 13 1.68 13 1 13 C1 12.34 1 11.68 1 11 C0.38125 10.690625 -0.2375 10.38125 -0.875 10.0625 C-2.25 9.375 -3.625 8.6875 -5 8 C-5 7.34 -5 6.68 -5 6 C-5.66 6 -6.32 6 -7 6 C-7 5.34 -7 4.68 -7 4 C-7.66 4 -8.32 4 -9 4 C-9 3.34 -9 2.68 -9 2 C-6.03 1.34 -3.06 0.68 0 0 Z " fill="#1E4843" transform="translate(795,548)"/>
<path d="M0 0 C5.28 0 10.56 0 16 0 C16 1.32 16 2.64 16 4 C14.02 4 12.04 4 10 4 C10 8.29 10 12.58 10 17 C8.35 17 6.7 17 5 17 C5 12.71 5 8.42 5 4 C3.35 4 1.7 4 0 4 C0 2.68 0 1.36 0 0 Z " fill="#4E4E4E" transform="translate(270,426)"/>
<path d="M0 0 C0.66 0 1.32 0 2 0 C6 5.41176471 6 5.41176471 6 8 C6.66 8 7.32 8 8 8 C8 8.66 8 9.32 8 10 C8.66 10 9.32 10 10 10 C10 10.66 10 11.32 10 12 C10.66 12 11.32 12 12 12 C12 13.32 12 14.64 12 16 C7.73383684 17.13764351 4.43513689 18 0 18 C0 12.06 0 6.12 0 0 Z " fill="#DCDCDC" transform="translate(546,500)"/>
<path d="M0 0 C0 7.26 0 14.52 0 22 C-1.32 22 -2.64 22 -4 22 C-4 17.05 -4 12.1 -4 7 C-4.66 7 -5.32 7 -6 7 C-6.33 7.99 -6.66 8.98 -7 10 C-8.65 10.33 -10.3 10.66 -12 11 C-12 10.34 -12 9.68 -12 9 C-11.34 9 -10.68 9 -10 9 C-9.7525 8.2575 -9.505 7.515 -9.25 6.75 C-7.04521512 1.89947326 -5.43447646 0 0 0 Z " fill="#282828" transform="translate(146,421)"/>
<path d="M0 0 C0 0.66 0 1.32 0 2 C2.31 2 4.62 2 7 2 C7 2.66 7 3.32 7 4 C7.94875 4.37125 8.8975 4.7425 9.875 5.125 C13 7 13 7 14.4375 9.9375 C14.96664477 12.81839931 15.03517628 14.30854168 14 17 C14 16.34 14 15.68 14 15 C13.01 15 12.02 15 11 15 C11 14.01 11 13.02 11 12 C8.69 11.34 6.38 10.68 4 10 C4 9.34 4 8.68 4 8 C2.35 7.67 0.7 7.34 -1 7 C-1 6.01 -1 5.02 -1 4 C-2.65 4.33 -4.3 4.66 -6 5 C-6.33 3.68 -6.66 2.36 -7 1 C-4.50935112 0.31292445 -2.62113708 0 0 0 Z " fill="#020C0B" transform="translate(481,487)"/>
<path d="M0 0 C2.97 0.495 2.97 0.495 6 1 C6 1.66 6 2.32 6 3 C4.68 2.67 3.36 2.34 2 2 C2.33 2.66 2.66 3.32 3 4 C5.31 4 7.62 4 10 4 C10 4.66 10 5.32 10 6 C13.465 5.505 13.465 5.505 17 5 C16.67 6.65 16.34 8.3 16 10 C15.37351562 10.03738281 14.74703125 10.07476563 14.1015625 10.11328125 C13.28429687 10.17902344 12.46703125 10.24476563 11.625 10.3125 C10.40683594 10.39951172 10.40683594 10.39951172 9.1640625 10.48828125 C6.62078662 10.82990528 6.62078662 10.82990528 5 14 C4.16121545 12.71186658 3.32913217 11.41936744 2.5 10.125 C2.0359375 9.40570312 1.571875 8.68640625 1.09375 7.9453125 C0 6 0 6 0 4 C-0.66 4 -1.32 4 -2 4 C-2 3.34 -2 2.68 -2 2 C-1.34 2 -0.68 2 0 2 C0 1.34 0 0.68 0 0 Z " fill="#112220" transform="translate(778,538)"/>
<path d="M0 0 C1.65 0.33 3.3 0.66 5 1 C5 1.66 5 2.32 5 3 C5.99 2.67 6.98 2.34 8 2 C8 2.66 8 3.32 8 4 C8.66 4 9.32 4 10 4 C10.12375 4.5775 10.2475 5.155 10.375 5.75 C11.00648824 8.02335767 11.88858191 9.9253529 13 12 C12.01 13.485 12.01 13.485 11 15 C11.66 15 12.32 15 13 15 C13 15.66 13 16.32 13 17 C10 19 10 19 7.3125 18.625 C6.1678125 18.315625 6.1678125 18.315625 5 18 C5 17.34 5 16.68 5 16 C5.99 15.34 6.98 14.68 8 14 C8.33 13.01 8.66 12.02 9 11 C8.34 11 7.68 11 7 11 C7 10.34 7 9.68 7 9 C6.34 9 5.68 9 5 9 C5 8.34 5 7.68 5 7 C4.34 6.67 3.68 6.34 3 6 C3 5.34 3 4.68 3 4 C-0.3 4.33 -3.6 4.66 -7 5 C-4 3 -4 3 -1 3 C-0.67 2.01 -0.34 1.02 0 0 Z " fill="#0A1F1D" transform="translate(797,547)"/>
<path d="M0 0 C0.66 0 1.32 0 2 0 C2 12.87 2 25.74 2 39 C5.3 39.33 8.6 39.66 12 40 C12 40.33 12 40.66 12 41 C8.04 41 4.08 41 0 41 C0 27.47 0 13.94 0 0 Z " fill="#ABABAB" transform="translate(258,451)"/>
<path d="M0 0 C0 12.54 0 25.08 0 38 C-0.66 38 -1.32 38 -2 38 C-2 26.12 -2 14.24 -2 2 C-5.96 2 -9.92 2 -14 2 C-14 1.67 -14 1.34 -14 1 C-9.09748502 0.019497 -5.19057759 0 0 0 Z " fill="#989898" transform="translate(314,494)"/>
<path d="M0 0 C3.3 0 6.6 0 10 0 C10.69685498 1.6210103 11.38222861 3.24696066 12.0625 4.875 C12.44535156 5.77992188 12.82820313 6.68484375 13.22265625 7.6171875 C14 10 14 10 13 12 C12.29875 11.690625 11.5975 11.38125 10.875 11.0625 C7.91063343 9.96697322 5.12301892 9.43577008 2 9 C1.67 7.68 1.34 6.36 1 5 C-0.65 4.67 -2.3 4.34 -4 4 C-4 3.67 -4 3.34 -4 3 C-2.35 2.67 -0.7 2.34 1 2 C0.67 1.34 0.34 0.68 0 0 Z " fill="#0C1C1B" transform="translate(480,482)"/>
<path d="M0 0 C1.32 0 2.64 0 4 0 C4 1.98 4 3.96 4 6 C6.64 6 9.28 6 12 6 C12 6.66 12 7.32 12 8 C9.36 8 6.72 8 4 8 C4 10.97 4 13.94 4 17 C2.68 17 1.36 17 0 17 C0 11.39 0 5.78 0 0 Z " fill="#272727" transform="translate(230,426)"/>
<path d="M0 0 C0.66 0 1.32 0 2 0 C2.02464928 5.25105442 2.04283568 10.50207545 2.05493164 15.75317383 C2.05997218 17.54094021 2.06680454 19.32870245 2.07543945 21.11645508 C2.0875173 23.68051168 2.09323094 26.24451397 2.09765625 28.80859375 C2.10281754 29.6127623 2.10797882 30.41693085 2.11329651 31.24546814 C2.11349215 33.16401715 2.06201983 35.08245368 2 37 C1 38 1 38 -1.5625 38.0625 C-2.366875 38.041875 -3.17125 38.02125 -4 38 C-2.68 37.34 -1.36 36.68 0 36 C0 24.12 0 12.24 0 0 Z " fill="#A5A5A5" transform="translate(312,452)"/>
<path d="M0 0 C1.98 0 3.96 0 6 0 C6 0.33 6 0.66 6 1 C4.35 1 2.7 1 1 1 C1 1.66 1 2.32 1 3 C3.64 2.34 6.28 1.68 9 1 C9 1.66 9 2.32 9 3 C9.66 3 10.32 3 11 3 C11.125 5.375 11.125 5.375 11 8 C9 10 9 10 6.1796875 10.1953125 C5.08914062 10.17210937 3.99859375 10.14890625 2.875 10.125 C1.77929688 10.10695313 0.68359375 10.08890625 -0.4453125 10.0703125 C-1.28835937 10.04710937 -2.13140625 10.02390625 -3 10 C-3 8.68 -3 7.36 -3 6 C0.3 6.33 3.6 6.66 7 7 C7 6.01 7 5.02 7 4 C4.69 4 2.38 4 0 4 C0 2.68 0 1.36 0 0 Z " fill="#606060" transform="translate(153,432)"/>
<path d="M0 0 C4.62 0 9.24 0 14 0 C14 0.33 14 0.66 14 1 C10.04 1 6.08 1 2 1 C2.33 2.65 2.66 4.3 3 6 C3.33 6 3.66 6 4 6 C4 8.64 4 11.28 4 14 C3.34 14 2.68 14 2 14 C1.67 14.99 1.34 15.98 1 17 C-0.32 17 -1.64 17 -3 17 C-3 15.68 -3 14.36 -3 13 C-2.34 12.67 -1.68 12.34 -1 12 C-0.53101037 9.1840151 -0.53101037 9.1840151 -0.375 5.9375 C-0.25125 3.978125 -0.1275 2.01875 0 0 Z " fill="#3C3C3C" transform="translate(308,426)"/>
<path d="M0 0 C0 4.95 0 9.9 0 15 C-0.99 15 -1.98 15 -3 15 C-3 11.7 -3 8.4 -3 5 C-3.66 5 -4.32 5 -5 5 C-5.28875 5.639375 -5.5775 6.27875 -5.875 6.9375 C-7 9 -7 9 -9 10 C-9 8.35 -9 6.7 -9 5 C-8.34 5 -7.68 5 -7 5 C-6.71125 4.360625 -6.4225 3.72125 -6.125 3.0625 C-4.45129782 -0.005954 -3.47574769 0 0 0 Z " fill="#0D0D0D" transform="translate(343,427)"/>
<path d="M0 0 C0.66 0.33 1.32 0.66 2 1 C2 1.99 2 2.98 2 4 C2.66 4 3.32 4 4 4 C4.66 5.32 5.32 6.64 6 8 C3.08500057 8.79560764 0.25438581 9.25322499 -2.75 9.5625 C-3.54921875 9.64628906 -4.3484375 9.73007812 -5.171875 9.81640625 C-5.77515625 9.87699219 -6.3784375 9.93757813 -7 10 C-7 8 -7 8 -6 7 C-6.99 6.67 -7.98 6.34 -9 6 C-8.34 5.67 -7.68 5.34 -7 5 C-7.66 4.34 -8.32 3.68 -9 3 C-4.545 2.505 -4.545 2.505 0 2 C0 1.34 0 0.68 0 0 Z " fill="#223A37" transform="translate(482,472)"/>
<path d="M0 0 C0.33 0.66 0.66 1.32 1 2 C1.33 2 1.66 2 2 2 C3.33568021 2.32380126 4.66923011 2.65657551 6 3 C5.34 4.65 4.68 6.3 4 8 C3.2575 7.814375 2.515 7.62875 1.75 7.4375 C-0.94990963 7.00796892 -2.44631077 7.14877026 -5 8 C-5 7.34 -5 6.68 -5 6 C-5.66 6 -6.32 6 -7 6 C-7 5.34 -7 4.68 -7 4 C-7.66 4 -8.32 4 -9 4 C-9 3.34 -9 2.68 -9 2 C-6.03 1.34 -3.06 0.68 0 0 Z " fill="#12312D" transform="translate(795,548)"/>
<path d="M0 0 C3.3 0.99 6.6 1.98 10 3 C8.8553125 3.8353125 8.8553125 3.8353125 7.6875 4.6875 C5.03859112 6.96679369 3.61711178 8.93599872 2 12 C0.68 11.67 -0.64 11.34 -2 11 C-1.34 8.69 -0.68 6.38 0 4 C0.66 4 1.32 4 2 4 C2 3.34 2 2.68 2 2 C1.34 2 0.68 2 0 2 C0 1.34 0 0.68 0 0 Z " fill="#0E1817" transform="translate(450,452)"/>
<path d="M0 0 C7.38461538 -0.49230769 7.38461538 -0.49230769 10.5 2 C10.995 2.66 11.49 3.32 12 4 C11.34 4 10.68 4 10 4 C10 4.99 10 5.98 10 7 C6.7 7 3.4 7 0 7 C2 3 2 3 3 2 C2.01 1.34 1.02 0.68 0 0 Z " fill="#383838" transform="translate(290,426)"/>
<path d="M0 0 C0.7425 0.391875 1.485 0.78375 2.25 1.1875 C2.25 1.8475 2.25 2.5075 2.25 3.1875 C0.6 3.5175 -1.05 3.8475 -2.75 4.1875 C-2.75 4.5175 -2.75 4.8475 -2.75 5.1875 C-2.75 8.29301666 -3.2893715 9.54011084 -4.75 12.1875 C-5.74 11.8575 -6.73 11.5275 -7.75 11.1875 C-7.42 9.8675 -7.09 8.5475 -6.75 7.1875 C-7.41 7.1875 -8.07 7.1875 -8.75 7.1875 C-7.83178464 4.35633598 -6.98342141 2.43701943 -4.9375 0.25 C-2.75 -0.8125 -2.75 -0.8125 0 0 Z " fill="#051513" transform="translate(462.75,456.8125)"/>
<path d="M0 0 C2.9375 0.75 2.9375 0.75 4.9375 2.75 C4.9375 3.74 4.9375 4.73 4.9375 5.75 C2.2975 6.41 -0.3425 7.07 -3.0625 7.75 C-3.0625 7.09 -3.0625 6.43 -3.0625 5.75 C-3.7225 5.42 -4.3825 5.09 -5.0625 4.75 C-4.7325 4.42 -4.4025 4.09 -4.0625 3.75 C-4.7225 3.09 -5.3825 2.43 -6.0625 1.75 C-3.0625 -0.25 -3.0625 -0.25 0 0 Z " fill="#1D4741" transform="translate(473.0625,467.25)"/>
<path d="M0 0 C0.99 0 1.98 0 3 0 C3 5.28 3 10.56 3 16 C2.01 16 1.02 16 0 16 C0 12.7 0 9.4 0 6 C-0.66 6 -1.32 6 -2 6 C-1.34 4.02 -0.68 2.04 0 0 Z " fill="#0B0B0B" transform="translate(264,426)"/>
<path d="M0 0 C3.63 0.33 7.26 0.66 11 1 C13.42857143 7.28571429 13.42857143 7.28571429 12 11 C12 10.34 12 9.68 12 9 C11.01 9 10.02 9 9 9 C9 8.01 9 7.02 9 6 C6.69 5.34 4.38 4.68 2 4 C2 3.34 2 2.68 2 2 C1.34 1.34 0.68 0.68 0 0 Z " fill="#081211" transform="translate(483,493)"/>
<path d="M0 0 C1.65 0 3.3 0 5 0 C5 5.61 5 11.22 5 17 C3.02 17 1.04 17 -1 17 C-1 14.69 -1 12.38 -1 10 C-1.66 9.67 -2.32 9.34 -3 9 C-2.34 8.01 -1.68 7.02 -1 6 C-0.34 6 0.32 6 1 6 C1 9.3 1 12.6 1 16 C1.99 16 2.98 16 4 16 C4 11.05 4 6.1 4 1 C2.35 1.33 0.7 1.66 -1 2 C-0.67 1.34 -0.34 0.68 0 0 Z " fill="#797979" transform="translate(339,426)"/>
<path d="M0 0 C0.66 0 1.32 0 2 0 C2.66 1.32 3.32 2.64 4 4 C3.34 4 2.68 4 2 4 C2 7.96 2 11.92 2 16 C3.32 16.33 4.64 16.66 6 17 C4.02 17.33 2.04 17.66 0 18 C0 12.06 0 6.12 0 0 Z " fill="#A6A6A6" transform="translate(546,500)"/>
<path d="M0 0 C0.33 0 0.66 0 1 0 C1 6.6 1 13.2 1 20 C0.01 20 -0.98 20 -2 20 C-2 15.71 -2 11.42 -2 7 C-1.67 7 -1.34 7 -1 7 C-0.67 4.69 -0.34 2.38 0 0 Z " fill="#070707" transform="translate(144,422)"/>
<path d="M0 0 C0.66 0 1.32 0 2 0 C3.3442623 5.37704918 3.3442623 5.37704918 1.6875 8.375 C0 10 0 10 -2 10 C-2.33 10.66 -2.66 11.32 -3 12 C-3.66 11.34 -4.32 10.68 -5 10 C-4.34 10 -3.68 10 -3 10 C-3 9.34 -3 8.68 -3 8 C-3.66 8 -4.32 8 -5 8 C-5 7.34 -5 6.68 -5 6 C-4.34 6 -3.68 6 -3 6 C-3 5.34 -3 4.68 -3 4 C-2.34 4 -1.68 4 -1 4 C-0.67 2.68 -0.34 1.36 0 0 Z " fill="#0D2320" transform="translate(813,560)"/>
<path d="M0 0 C0.99 0 1.98 0 3 0 C3 4.62 3 9.24 3 14 C2.01 14 1.02 14 0 14 C0 9.38 0 4.76 0 0 Z " fill="#040404" transform="translate(276,428)"/>
<path d="M0 0 C0.99 0 1.98 0 3 0 C3 4.62 3 9.24 3 14 C2.01 14 1.02 14 0 14 C0 9.38 0 4.76 0 0 Z " fill="#070707" transform="translate(221,428)"/>
<path d="M0 0 C0.33 1.32 0.66 2.64 1 4 C-2.50776784 5.60355101 -5.14354879 6.22036864 -9 6 C-9.33 4.68 -9.66 3.36 -10 2 C-6.7 1.34 -3.4 0.68 0 0 Z " fill="#153733" transform="translate(794,543)"/>
<path d="M0 0 C0.66 0 1.32 0 2 0 C2 3.3 2 6.6 2 10 C2.66 10 3.32 10 4 10 C4 11.65 4 13.3 4 15 C2.68 15 1.36 15 0 15 C0 10.05 0 5.1 0 0 Z " fill="#040404" transform="translate(328,427)"/>
<path d="M0 0 C0.66 0 1.32 0 2 0 C2 3.3 2 6.6 2 10 C2.66 10 3.32 10 4 10 C4 11.65 4 13.3 4 15 C2.68 15 1.36 15 0 15 C0 10.05 0 5.1 0 0 Z " fill="#030303" transform="translate(252,427)"/>
<path d="M0 0 C2.0625 0.4375 2.0625 0.4375 4 1 C4 2.32 4 3.64 4 5 C4.5775 4.67 5.155 4.34 5.75 4 C8 3 8 3 12 3 C12.33 2.34 12.66 1.68 13 1 C13.33 1.99 13.66 2.98 14 4 C13.0925 4.28875 12.185 4.5775 11.25 4.875 C8.67797092 5.76531776 6.38653234 6.71494413 4 8 C4 7.34 4 6.68 4 6 C3.34 6 2.68 6 2 6 C2 5.34 2 4.68 2 4 C1.34 4 0.68 4 0 4 C-0.33 3.01 -0.66 2.02 -1 1 C-0.67 0.67 -0.34 0.34 0 0 Z " fill="#12302D" transform="translate(466,470)"/>
<path d="M0 0 C0.66 0.33 1.32 0.66 2 1 C2 1.66 2 2.32 2 3 C3.32 3 4.64 3 6 3 C6 3.66 6 4.32 6 5 C6.66 5 7.32 5 8 5 C8.33 5.99 8.66 6.98 9 8 C8.34 8.66 7.68 9.32 7 10 C6.67 9.01 6.34 8.02 6 7 C5.2575 6.9175 4.515 6.835 3.75 6.75 C0.48778646 5.8603054 -0.80954878 4.51496251 -3 2 C-2.01 1.34 -1.02 0.68 0 0 Z " fill="#051311" transform="translate(462,471)"/>
<path d="M0 0 C0.99 0 1.98 0 3 0 C2.125 4.875 2.125 4.875 1 6 C-1.01964199 6.07244053 -3.04167124 6.08377188 -5.0625 6.0625 C-6.16722656 6.05347656 -7.27195313 6.04445313 -8.41015625 6.03515625 C-9.69212891 6.01775391 -9.69212891 6.01775391 -11 6 C-11 5.34 -11 4.68 -11 4 C-7.37 4 -3.74 4 0 4 C0 2.68 0 1.36 0 0 Z " fill="#090909" transform="translate(161,436)"/>
<path d="M0 0 C1.98 0 3.96 0 6 0 C6 1.98 6 3.96 6 6 C4.02 6 2.04 6 0 6 C0 4.02 0 2.04 0 0 Z " fill="#C2C2C2" transform="translate(196,434)"/>
<path d="M0 0 C0.66 0 1.32 0 2 0 C1.67 1.32 1.34 2.64 1 4 C1.66 4 2.32 4 3 4 C3 4.66 3 5.32 3 6 C0.625 7.6875 0.625 7.6875 -2 9 C-2.66 8.67 -3.32 8.34 -4 8 C-4.66 8 -5.32 8 -6 8 C-5.25 6.0625 -5.25 6.0625 -4 4 C-1.875 3.25 -1.875 3.25 0 3 C0 2.01 0 1.02 0 0 Z " fill="#214540" transform="translate(468,460)"/>
<path d="M0 0 C3.3 0 6.6 0 10 0 C10 0.66 10 1.32 10 2 C9.34 2 8.68 2 8 2 C8 2.66 8 3.32 8 4 C4.04 4 0.08 4 -4 4 C-4 3.67 -4 3.34 -4 3 C-2.35 2.67 -0.7 2.34 1 2 C0.67 1.34 0.34 0.68 0 0 Z " fill="#1A3734" transform="translate(480,482)"/>
<path d="M0 0 C1.98 0.99 1.98 0.99 4 2 C4 3.98 4 5.96 4 8 C2.02 8.99 2.02 8.99 0 10 C0 6.7 0 3.4 0 0 Z " fill="#181818" transform="translate(202,432)"/>
<path d="M0 0 C1.32 0 2.64 0 4 0 C3.6875 2.375 3.6875 2.375 3 5 C-0.4352048 7.29013653 -1.985331 7.17842973 -6 7 C-6 6.34 -6 5.68 -6 5 C-4.35 4.67 -2.7 4.34 -1 4 C-0.67 2.68 -0.34 1.36 0 0 Z " fill="#161616" transform="translate(160,428)"/>
<path d="M0 0 C0.66 0.33 1.32 0.66 2 1 C1.01 2.485 1.01 2.485 0 4 C0.66 4 1.32 4 2 4 C2 4.66 2 5.32 2 6 C-1 8 -1 8 -3.6875 7.625 C-4.450625 7.41875 -5.21375 7.2125 -6 7 C-6 6.34 -6 5.68 -6 5 C-4.04072937 3.2856382 -2.04119788 1.61594832 0 0 Z " fill="#183C38" transform="translate(808,558)"/>
<path d="M0 0 C0.99 0 1.98 0 3 0 C3 1.32 3 2.64 3 4 C4.65 3.34 6.3 2.68 8 2 C7.25 3.9375 7.25 3.9375 6 6 C4 6.8125 4 6.8125 2 7 C1.34 6.67 0.68 6.34 0 6 C0 5.34 0 4.68 0 4 C-0.66 3.67 -1.32 3.34 -2 3 C-1.34 2.01 -0.68 1.02 0 0 Z " fill="#030E0D" transform="translate(453,464)"/>
<path d="M0 0 C4.455 0.99 4.455 0.99 9 2 C8.67 2.66 8.34 3.32 8 4 C8.66 4.66 9.32 5.32 10 6 C6.29706315 6.33663062 4.60465619 6.47736015 1.625 4.125 C0 2 0 2 0 0 Z " fill="#071A18" transform="translate(776,532)"/>
<path d="M0 0 C0.33 0.66 0.66 1.32 1 2 C0.01 2.33 -0.98 2.66 -2 3 C-1.34 3.66 -0.68 4.32 0 5 C-2.31 5.33 -4.62 5.66 -7 6 C-7 5.34 -7 4.68 -7 4 C-7.66 4 -8.32 4 -9 4 C-9 3.34 -9 2.68 -9 2 C-6.03 1.34 -3.06 0.68 0 0 Z " fill="#23534D" transform="translate(795,548)"/>
<path d="M0 0 C0.66 1.32 1.32 2.64 2 4 C-1.3 4.33 -4.6 4.66 -8 5 C-7.34 4.34 -6.68 3.68 -6 3 C-6.66 2.34 -7.32 1.68 -8 1 C-5.07175348 0.02391783 -3.04386724 -0.08226668 0 0 Z " fill="#23544E" transform="translate(481,474)"/>
<path d="M0 0 C0.66 0.66 1.32 1.32 2 2 C0.35 3.65 -1.3 5.3 -3 7 C-3.66 6.67 -4.32 6.34 -5 6 C-5.66 6 -6.32 6 -7 6 C-6.1875 4.0625 -6.1875 4.0625 -5 2 C-4.01 1.67 -3.02 1.34 -2 1 C-1.34 1.33 -0.68 1.66 0 2 C0 1.34 0 0.68 0 0 Z " fill="#193632" transform="translate(465,458)"/>
<path d="M0 0 C0.7425 0.391875 1.485 0.78375 2.25 1.1875 C2.25 1.8475 2.25 2.5075 2.25 3.1875 C-0.06 3.1875 -2.37 3.1875 -4.75 3.1875 C-5.41 4.5075 -6.07 5.8275 -6.75 7.1875 C-7.41 7.1875 -8.07 7.1875 -8.75 7.1875 C-7.83178464 4.35633598 -6.98342141 2.43701943 -4.9375 0.25 C-2.75 -0.8125 -2.75 -0.8125 0 0 Z " fill="#111F1E" transform="translate(462.75,456.8125)"/>
<path d="M0 0 C0.66 0 1.32 0 2 0 C2 2.64 2 5.28 2 8 C1.34 7.01 0.68 6.02 0 5 C-0.45375 5.495 -0.9075 5.99 -1.375 6.5 C-3 8 -3 8 -5 8 C-5 7.34 -5 6.68 -5 6 C-4.34 6 -3.68 6 -3 6 C-3 5.34 -3 4.68 -3 4 C-2.34 4 -1.68 4 -1 4 C-0.67 2.68 -0.34 1.36 0 0 Z " fill="#D1D1D1" transform="translate(261,434)"/>
<path d="M0 0 C0.66 0 1.32 0 2 0 C2 3.63 2 7.26 2 11 C1.34 11 0.68 11 0 11 C0 8.69 0 6.38 0 4 C-0.66 3.67 -1.32 3.34 -2 3 C-1.34 2.01 -0.68 1.02 0 0 Z " fill="#999999" transform="translate(338,432)"/>
<path d="M0 0 C2.31 0 4.62 0 7 0 C7.33 0.99 7.66 1.98 8 3 C5.03 3 2.06 3 -1 3 C-0.67 2.01 -0.34 1.02 0 0 Z " fill="#BEBEBE" transform="translate(291,430)"/>
<path d="M0 0 C2.64 0 5.28 0 8 0 C8 0.33 8 0.66 8 1 C6.35 1.33 4.7 1.66 3 2 C2.67 4.31 2.34 6.62 2 9 C1.34 9 0.68 9 0 9 C0 6.03 0 3.06 0 0 Z " fill="#0A0A0A" transform="translate(212,427)"/>
<path d="M0 0 C0 0.66 0 1.32 0 2 C-1.98 2.66 -3.96 3.32 -6 4 C-6.99 2.68 -7.98 1.36 -9 0 C-5.52176885 -1.15941038 -3.54104422 -0.70820884 0 0 Z " fill="#285E56" transform="translate(800,555)"/>
<path d="M0 0 C1.65 0.33 3.3 0.66 5 1 C5 1.66 5 2.32 5 3 C0.8803623 4.29243536 -2.66831683 5.26252625 -7 5 C-4 3 -4 3 -1 3 C-0.67 2.01 -0.34 1.02 0 0 Z " fill="#0D2725" transform="translate(797,547)"/>
<path d="M0 0 C0.66 0 1.32 0 2 0 C2 4.95 2 9.9 2 15 C1.67 15 1.34 15 1 15 C0.92652344 13.82630859 0.92652344 13.82630859 0.8515625 12.62890625 C0.77679688 11.61699219 0.70203125 10.60507812 0.625 9.5625 C0.55539063 8.55316406 0.48578125 7.54382813 0.4140625 6.50390625 C0.27742187 5.67761719 0.14078125 4.85132813 0 4 C-0.66 3.67 -1.32 3.34 -2 3 C-1.34 2.01 -0.68 1.02 0 0 Z " fill="#A3A3A3" transform="translate(140,428)"/>
<path d="M0 0 C0 1.65 0 3.3 0 5 C-1.65 5.33 -3.3 5.66 -5 6 C-5 4.68 -5 3.36 -5 2 C-1.125 0 -1.125 0 0 0 Z " fill="#292929" transform="translate(310,437)"/>
<path d="M0 0 C1.33333333 0 2.66666667 0 4 0 C3.67 2.64 3.34 5.28 3 8 C2.34 8 1.68 8 1 8 C1 6.35 1 4.7 1 3 C0.34 3 -0.32 3 -1 3 C-0.67 2.01 -0.34 1.02 0 0 Z " fill="#C4C4C4" transform="translate(163,432)"/>
<path d="M0 0 C0 1.65 0 3.3 0 5 C-0.66 5 -1.32 5 -2 5 C-2 8.3 -2 11.6 -2 15 C-2.33 15 -2.66 15 -3 15 C-3 10.38 -3 5.76 -3 1 C-1 0 -1 0 0 0 Z " fill="#0A0A0A" transform="translate(196,427)"/>
<path d="M0 0 C0.433125 0.9590625 0.433125 0.9590625 0.875 1.9375 C1.82823451 4.15206079 1.82823451 4.15206079 4 5 C3.34 5 2.68 5 2 5 C2 5.99 2 6.98 2 8 C2.99 8.33 3.98 8.66 5 9 C2.69 8.67 0.38 8.34 -2 8 C-1.34 5.36 -0.68 2.72 0 0 Z " fill="#7A7A7A" transform="translate(206,434)"/>
<path d="M0 0 C2.64 0 5.28 0 8 0 C7.67 0.99 7.34 1.98 7 3 C5.02 3 3.04 3 1 3 C0.67 2.01 0.34 1.02 0 0 Z " fill="#DDDDDD" transform="translate(291,436)"/>
<path d="M0 0 C0 0.99 0 1.98 0 3 C-1.98 3.33 -3.96 3.66 -6 4 C-5.67 3.34 -5.34 2.68 -5 2 C-5.66 1.34 -6.32 0.68 -7 0 C-4.3333581 -1.33332095 -2.83319697 -0.67102033 0 0 Z " fill="#296059" transform="translate(478,470)"/>
<path d="M0 0 C-0.99 1.485 -0.99 1.485 -2 3 C-2 3.99 -2 4.98 -2 6 C-2.99 5.67 -3.98 5.34 -5 5 C-5.33 3.35 -5.66 1.7 -6 0 C-2.25 -1.125 -2.25 -1.125 0 0 Z " fill="#0B2321" transform="translate(468,469)"/>
<path d="M0 0 C0.66 0 1.32 0 2 0 C2 1.65 2 3.3 2 5 C-1.63 5 -5.26 5 -9 5 C-9 4.67 -9 4.34 -9 4 C-6.36 3.67 -3.72 3.34 -1 3 C-0.67 2.01 -0.34 1.02 0 0 Z " fill="#070707" transform="translate(300,430)"/>
<path d="M0 0 C0 0.66 0 1.32 0 2 C-0.66 2 -1.32 2 -2 2 C-2 2.66 -2 3.32 -2 4 C-1.34 4 -0.68 4 0 4 C0 4.66 0 5.32 0 6 C-1.32 6 -2.64 6 -4 6 C-4.33 5.01 -4.66 4.02 -5 3 C-2.25 0 -2.25 0 0 0 Z " fill="#040C0B" transform="translate(810,564)"/>
<path d="M0 0 C0.66 0 1.32 0 2 0 C2 0.66 2 1.32 2 2 C2.66 2 3.32 2 4 2 C4 2.66 4 3.32 4 4 C0.71303767 4.79953138 -0.71023192 5.09658936 -4 4 C-2.68 3.67 -1.36 3.34 0 3 C0 2.01 0 1.02 0 0 Z " fill="#183D38" transform="translate(800,554)"/>
<path d="M0 0 C1.32 0.33 2.64 0.66 4 1 C4 2.98 4 4.96 4 7 C2 5.1875 2 5.1875 0 3 C0 2.01 0 1.02 0 0 Z " fill="#161918" transform="translate(780,545)"/>
<path d="M0 0 C2.3828125 0.0234375 2.3828125 0.0234375 5.125 0.375 C6.03507812 0.48585938 6.94515625 0.59671875 7.8828125 0.7109375 C8.93082031 0.85402344 8.93082031 0.85402344 10 1 C10 1.33 10 1.66 10 2 C5.6835078 2.76173392 2.25566547 3.16063604 -2 2 C-1.34 1.34 -0.68 0.68 0 0 Z " fill="#0B2421" transform="translate(476,482)"/>
<path d="M0 0 C0 0.99 0 1.98 0 3 C0.66 3.66 1.32 4.32 2 5 C1 6 1 6 -1.5625 6.0625 C-2.7690625 6.0315625 -2.7690625 6.0315625 -4 6 C-4 5.34 -4 4.68 -4 4 C-3.34 4 -2.68 4 -2 4 C-1.34 2.68 -0.68 1.36 0 0 Z " fill="#010505" transform="translate(815,566)"/>
<path d="M0 0 C0.33 0.66 0.66 1.32 1 2 C1.66 2 2.32 2 3 2 C3 2.66 3 3.32 3 4 C2.34 4 1.68 4 1 4 C1 4.66 1 5.32 1 6 C0.34 6 -0.32 6 -1 6 C-1 5.01 -1 4.02 -1 3 C-1.66 2.67 -2.32 2.34 -3 2 C-2.01 1.34 -1.02 0.68 0 0 Z " fill="#2F2F2F" transform="translate(257,434)"/>
<path d="M0 0 C-0.598125 0.28875 -1.19625 0.5775 -1.8125 0.875 C-4.19327792 2.04742026 -4.19327792 2.04742026 -7 4 C-7.66 3.67 -8.32 3.34 -9 3 C-9 2.34 -9 1.68 -9 1 C-6.04335481 -0.4783226 -3.25770263 -0.06032783 0 0 Z " fill="#161616" transform="translate(297,427)"/>
</svg>
